SplineFontDB: 3.2
FontName: Lozegw
FullName: Lozegw
FamilyName: Lozegw
Weight: Regular
Copyright: Copyright (c) 2025, W.F.Turnip
UComments: "2025-3-28: Created with FontForge (http://fontforge.org)"
Version: 001.000
ItalicAngle: 0
UnderlinePosition: -85
UnderlineWidth: 42
Ascent: 625
Descent: 225
InvalidEm: 0
LayerCount: 2
Layer: 0 1 "+gMyXYgAA" 1
Layer: 1 1 "+Uk2XYgAA" 0
XUID: [1021 352 -730677569 948517]
StyleMap: 0x0000
FSType: 0
OS2Version: 0
OS2_WeightWidthSlopeOnly: 0
OS2_UseTypoMetrics: 1
CreationTime: 1743150985
ModificationTime: 1761300950
OS2TypoAscent: 0
OS2TypoAOffset: 1
OS2TypoDescent: 0
OS2TypoDOffset: 1
OS2TypoLinegap: 76
OS2WinAscent: 0
OS2WinAOffset: 1
OS2WinDescent: 0
OS2WinDOffset: 1
HheadAscent: 0
HheadAOffset: 1
HheadDescent: 0
HheadDOffset: 1
Lookup: 260 0 0 "mark" { "mark-1"  } ['mark' ('latn' <'dflt' > ) ]
MarkAttachClasses: 1
DEI: 91125
Encoding: UnicodeBmp
UnicodeInterp: none
NameList: AGL For New Fonts
DisplaySize: -48
AntiAlias: 0
FitToEm: 0
WinInfo: 0 14 10
BeginPrivate: 0
EndPrivate
AnchorClass2: "vowel" "mark-1"
BeginChars: 65536 96

StartChar: nine
Encoding: 57 57 0
Width: 500
Flags: W
LayerCount: 2
Fore
SplineSet
250 425 m 1,0,-1
 475 200 l 1,1,-1
 450 175 l 1,2,-1
 425 200 l 1,3,-1
 250 375 l 1,4,-1
 175 300 l 1,5,-1
 150 275 l 1,6,-1
 75 200 l 1,7,-1
 250 25 l 1,8,-1
 275 0 l 1,9,-1
 250 -25 l 1,10,-1
 225 0 l 1,11,-1
 150 75 l 1,12,-1
 125 100 l 1,13,-1
 50 175 l 1,14,-1
 25 200 l 1,15,-1
 50 225 l 1,16,-1
 125 300 l 1,17,-1
 150 325 l 1,18,-1
 225 400 l 1,19,-1
 250 425 l 1,0,-1
250 325 m 1,20,-1
 375 200 l 1,21,-1
 250 75 l 1,22,-1
 125 200 l 1,23,-1
 250 325 l 1,20,-1
250 275 m 1,24,-1
 175 200 l 1,25,-1
 250 125 l 1,26,-1
 325 200 l 1,27,-1
 250 275 l 1,24,-1
EndSplineSet
EndChar

StartChar: eight
Encoding: 56 56 1
Width: 500
Flags: W
LayerCount: 2
Fore
SplineSet
250 425 m 1,0,-1
 475 200 l 1,1,-1
 450 175 l 1,2,-1
 362.5 87.5 l 1,3,-1
 350 75 l 1,4,-1
 325 100 l 1,5,-1
 337.5 112.5 l 1,6,-1
 425 200 l 1,7,-1
 250 375 l 1,8,-1
 175 300 l 1,9,-1
 150 275 l 1,10,-1
 75 200 l 1,11,-1
 162.5 112.5 l 1,12,-1
 175 100 l 1,13,-1
 150 75 l 1,14,-1
 125 100 l 1,15,-1
 50 175 l 1,16,-1
 25 200 l 1,17,-1
 50 225 l 1,18,-1
 125 300 l 1,19,-1
 150 325 l 1,20,-1
 225 400 l 1,21,-1
 250 425 l 1,0,-1
250 325 m 1,22,-1
 375 200 l 1,23,-1
 250 75 l 1,24,-1
 125 200 l 1,25,-1
 250 325 l 1,22,-1
250 275 m 1,26,-1
 175 200 l 1,27,-1
 250 125 l 1,28,-1
 325 200 l 1,29,-1
 250 275 l 1,26,-1
EndSplineSet
EndChar

StartChar: parenleft
Encoding: 40 40 2
Width: 500
Flags: W
LayerCount: 2
Fore
SplineSet
225 400 m 1,0,-1
 350 525 l 1,1,-1
 375 500 l 1,2,-1
 350 475 l 1,3,-1
 275 400 l 1,4,-1
 275 0 l 1,5,-1
 350 -75 l 1,6,-1
 375 -100 l 1,7,-1
 350 -125 l 1,8,-1
 225 0 l 1,9,-1
 225 400 l 1,0,-1
EndSplineSet
EndChar

StartChar: parenright
Encoding: 41 41 3
Width: 500
Flags: W
LayerCount: 2
Fore
SplineSet
275 400 m 1,0,-1
 275 0 l 1,1,-1
 150 -125 l 1,2,-1
 125 -100 l 1,3,-1
 150 -75 l 1,4,-1
 225 0 l 1,5,-1
 225 400 l 1,6,-1
 150 475 l 1,7,-1
 125 500 l 1,8,-1
 150 525 l 1,9,-1
 275 400 l 1,0,-1
EndSplineSet
EndChar

StartChar: l
Encoding: 108 108 4
Width: 500
Flags: W
AnchorPoint: "vowel" 250 200 basechar 0
LayerCount: 2
Fore
SplineSet
250 425 m 1,0,-1
 275 400 l 1,1,-1
 362.5 312.5 l 1,2,-1
 475 200 l 1,3,-1
 450 175 l 1,4,-1
 375 100 l 1,5,-1
 350 75 l 1,6,-1
 275 0 l 1,7,-1
 250 -25 l 1,8,-1
 225 0 l 1,9,-1
 150 75 l 1,10,-1
 125 100 l 1,11,-1
 50 175 l 1,12,-1
 25 200 l 1,13,-1
 50 225 l 1,14,-1
 125 300 l 1,15,-1
 137.5 312.5 l 1,16,-1
 150 325 l 1,17,-1
 225 400 l 1,18,-1
 250 425 l 1,0,-1
250 375 m 1,19,-1
 175 300 l 1,20,-1
 162.5 287.5 l 1,21,-1
 150 275 l 1,22,-1
 75 200 l 1,23,-1
 250 25 l 1,24,-1
 325 100 l 1,25,-1
 425 200 l 1,26,-1
 350 275 l 1,27,-1
 325 300 l 1,28,-1
 250 375 l 1,19,-1
150 325 m 1,29,-1
 162.5 312.5 l 1,30,-1
 175 300 l 1,31,-1
 350 125 l 1,32,-1
 362.5 112.5 l 1,33,-1
 375 100 l 1,34,-1
 350 75 l 1,35,-1
 337.5 87.5 l 1,36,-1
 325 100 l 1,37,-1
 150 275 l 1,38,-1
 137.5 287.5 l 1,39,-1
 125 300 l 1,40,-1
 150 325 l 1,29,-1
EndSplineSet
EndChar

StartChar: Y
Encoding: 89 89 5
Width: 500
Flags: W
AnchorPoint: "vowel" 250 200 basechar 0
LayerCount: 2
Fore
SplineSet
250 425 m 1,0,-1
 275 400 l 1,1,-1
 475 200 l 1,2,-1
 450 175 l 1,3,-1
 375 100 l 1,4,-1
 350 75 l 1,5,-1
 250 -25 l 1,6,-1
 137.5 87.5 l 1,7,-1
 125 100 l 1,8,-1
 150 125 l 1,9,-1
 175 100 l 1,10,-1
 250 25 l 1,11,-1
 325 100 l 1,12,-1
 350 125 l 1,13,-1
 425 200 l 1,14,-1
 250 375 l 1,15,-1
 162.5 287.5 l 1,16,-1
 150 275 l 1,17,-1
 125 300 l 1,18,-1
 137.5 312.5 l 1,19,-1
 225 400 l 1,20,-1
 250 425 l 1,0,-1
150 325 m 1,21,-1
 162.5 312.5 l 1,22,-1
 175 300 l 1,23,-1
 350 125 l 1,24,-1
 362.5 112.5 l 1,25,-1
 375 100 l 1,26,-1
 350 75 l 1,27,-1
 337.5 87.5 l 1,28,-1
 325 100 l 1,29,-1
 150 275 l 1,30,-1
 137.5 287.5 l 1,31,-1
 125 300 l 1,32,-1
 150 325 l 1,21,-1
250 325 m 1,33,-1
 375 200 l 1,34,-1
 250 75 l 1,35,-1
 125 200 l 1,36,-1
 250 325 l 1,33,-1
250 275 m 1,37,-1
 175 200 l 1,38,-1
 250 125 l 1,39,-1
 325 200 l 1,40,-1
 250 275 l 1,37,-1
EndSplineSet
EndChar

StartChar: q
Encoding: 113 113 6
Width: 500
Flags: W
AnchorPoint: "vowel" 250 200 basechar 0
LayerCount: 2
Fore
SplineSet
250 425 m 1,0,-1
 275 400 l 1,1,-1
 475 200 l 1,2,-1
 450 175 l 1,3,-1
 375 100 l 1,4,-1
 350 75 l 1,5,-1
 250 -25 l 1,6,-1
 137.5 87.5 l 1,7,-1
 125 100 l 1,8,-1
 150 125 l 1,9,-1
 175 100 l 1,10,-1
 250 25 l 1,11,-1
 325 100 l 1,12,-1
 350 125 l 1,13,-1
 425 200 l 1,14,-1
 250 375 l 1,15,-1
 162.5 287.5 l 1,16,-1
 150 275 l 1,17,-1
 125 300 l 1,18,-1
 137.5 312.5 l 1,19,-1
 225 400 l 1,20,-1
 250 425 l 1,0,-1
EndSplineSet
EndChar

StartChar: e
Encoding: 101 101 7
Width: 0
VWidth: 1000
GlyphClass: 4
Flags: W
AnchorPoint: "vowel" 0 200 mark 0
LayerCount: 2
Fore
SplineSet
-100 525 m 1,0,-1
 -87.5 512.5 l 1,1,-1
 -75 500 l 1,2,-1
 0 425 l 1,3,-1
 12.5 412.5 l 1,4,-1
 25 400 l 1,5,-1
 0 375 l 1,6,-1
 -12.5 387.5 l 1,7,-1
 -25 400 l 1,8,-1
 -100 475 l 1,9,-1
 -112.5 487.5 l 1,10,-1
 -125 500 l 1,11,-1
 -100 525 l 1,0,-1
EndSplineSet
EndChar

StartChar: d
Encoding: 100 100 8
Width: 500
Flags: W
AnchorPoint: "vowel" 250 200 basechar 0
LayerCount: 2
Fore
SplineSet
150 325 m 1,0,-1
 175 300 l 1,1,-1
 150 275 l 1,2,-1
 75 200 l 1,3,-1
 250 25 l 1,4,-1
 325 100 l 1,5,-1
 350 125 l 1,6,-1
 425 200 l 1,7,-1
 350 275 l 1,8,-1
 325 300 l 1,9,-1
 350 325 l 1,10,-1
 375 300 l 1,11,-1
 475 200 l 1,12,-1
 450 175 l 1,13,-1
 375 100 l 1,14,-1
 350 75 l 1,15,-1
 250 -25 l 1,16,-1
 150 75 l 1,17,-1
 125 100 l 1,18,-1
 50 175 l 1,19,-1
 25 200 l 1,20,-1
 50 225 l 1,21,-1
 125 300 l 1,22,-1
 150 325 l 1,0,-1
150 325 m 1,23,-1
 162.5 312.5 l 1,24,-1
 175 300 l 1,25,-1
 350 125 l 1,26,-1
 362.5 112.5 l 1,27,-1
 375 100 l 1,28,-1
 350 75 l 1,29,-1
 337.5 87.5 l 1,30,-1
 325 100 l 1,31,-1
 150 275 l 1,32,-1
 137.5 287.5 l 1,33,-1
 125 300 l 1,34,-1
 150 325 l 1,23,-1
EndSplineSet
EndChar

StartChar: p
Encoding: 112 112 9
Width: 500
Flags: W
AnchorPoint: "vowel" 250 200 basechar 0
LayerCount: 2
Fore
SplineSet
250 425 m 1,0,-1
 362.5 312.5 l 1,1,-1
 375 300 l 1,2,-1
 350 275 l 1,3,-1
 325 300 l 1,4,-1
 250 375 l 1,5,-1
 175 300 l 1,6,-1
 150 275 l 1,7,-1
 75 200 l 1,8,-1
 250 25 l 1,9,-1
 325 100 l 1,10,-1
 350 125 l 1,11,-1
 375 100 l 1,12,-1
 350 75 l 1,13,-1
 250 -25 l 1,14,-1
 150 75 l 1,15,-1
 125 100 l 1,16,-1
 50 175 l 1,17,-1
 25 200 l 1,18,-1
 50 225 l 1,19,-1
 125 300 l 1,20,-1
 150 325 l 1,21,-1
 225 400 l 1,22,-1
 250 425 l 1,0,-1
EndSplineSet
EndChar

StartChar: X
Encoding: 88 88 10
Width: 500
Flags: W
AnchorPoint: "vowel" 250 200 basechar 0
LayerCount: 2
Fore
SplineSet
250 425 m 1,0,-1
 475 200 l 1,1,-1
 450 175 l 1,2,-1
 375 100 l 1,3,-1
 350 75 l 1,4,-1
 275 0 l 1,5,-1
 250 -25 l 1,6,-1
 225 0 l 1,7,-1
 250 25 l 1,8,-1
 325 100 l 1,9,-1
 350 125 l 1,10,-1
 425 200 l 1,11,-1
 250 375 l 1,12,-1
 175 300 l 1,13,-1
 150 275 l 1,14,-1
 75 200 l 1,15,-1
 50 175 l 1,16,-1
 25 200 l 1,17,-1
 50 225 l 1,18,-1
 125 300 l 1,19,-1
 150 325 l 1,20,-1
 225 400 l 1,21,-1
 250 425 l 1,0,-1
150 325 m 1,22,-1
 162.5 312.5 l 1,23,-1
 175 300 l 1,24,-1
 350 125 l 1,25,-1
 362.5 112.5 l 1,26,-1
 375 100 l 1,27,-1
 350 75 l 1,28,-1
 337.5 87.5 l 1,29,-1
 325 100 l 1,30,-1
 150 275 l 1,31,-1
 137.5 287.5 l 1,32,-1
 125 300 l 1,33,-1
 150 325 l 1,22,-1
EndSplineSet
EndChar

StartChar: k
Encoding: 107 107 11
Width: 500
Flags: W
AnchorPoint: "vowel" 250 200 basechar 0
LayerCount: 2
Fore
SplineSet
250 425 m 1,0,-1
 275 400 l 1,1,-1
 475 200 l 1,2,-1
 450 175 l 1,3,-1
 375 100 l 1,4,-1
 350 75 l 1,5,-1
 250 -25 l 1,6,-1
 150 75 l 1,7,-1
 125 100 l 1,8,-1
 50 175 l 1,9,-1
 25 200 l 1,10,-1
 50 225 l 1,11,-1
 75 200 l 1,12,-1
 250 25 l 1,13,-1
 325 100 l 1,14,-1
 350 125 l 1,15,-1
 425 200 l 1,16,-1
 350 275 l 1,17,-1
 325 300 l 1,18,-1
 250 375 l 1,19,-1
 225 400 l 1,20,-1
 250 425 l 1,0,-1
EndSplineSet
EndChar

StartChar: braceright
Encoding: 125 125 12
Width: 500
Flags: W
LayerCount: 2
Fore
SplineSet
275 400 m 1,0,-1
 275 300 l 1,1,-1
 375 200 l 1,2,-1
 275 100 l 1,3,-1
 275 0 l 1,4,-1
 150 -125 l 1,5,-1
 125 -100 l 1,6,-1
 150 -75 l 1,7,-1
 225 0 l 1,8,-1
 225 100 l 1,9,-1
 325 200 l 1,10,-1
 225 300 l 1,11,-1
 225 400 l 1,12,-1
 150 475 l 1,13,-1
 125 500 l 1,14,-1
 150 525 l 1,15,-1
 275 400 l 1,0,-1
EndSplineSet
EndChar

StartChar: f
Encoding: 102 102 13
Width: 500
Flags: W
AnchorPoint: "vowel" 250 200 basechar 0
LayerCount: 2
Fore
SplineSet
250 425 m 1,0,-1
 475 200 l 1,1,-1
 450 175 l 1,2,-1
 362.5 87.5 l 1,3,-1
 350 75 l 1,4,-1
 325 100 l 1,5,-1
 337.5 112.5 l 1,6,-1
 425 200 l 1,7,-1
 250 375 l 1,8,-1
 175 300 l 1,9,-1
 150 275 l 1,10,-1
 75 200 l 1,11,-1
 162.5 112.5 l 1,12,-1
 175 100 l 1,13,-1
 150 75 l 1,14,-1
 125 100 l 1,15,-1
 50 175 l 1,16,-1
 25 200 l 1,17,-1
 50 225 l 1,18,-1
 125 300 l 1,19,-1
 150 325 l 1,20,-1
 225 400 l 1,21,-1
 250 425 l 1,0,-1
EndSplineSet
EndChar

StartChar: r
Encoding: 114 114 14
Width: 500
Flags: W
AnchorPoint: "vowel" 250 200 basechar 0
LayerCount: 2
Fore
SplineSet
250 425 m 1,0,-1
 275 400 l 1,1,-1
 362.5 312.5 l 1,2,-1
 475 200 l 1,3,-1
 450 175 l 1,4,-1
 375 100 l 1,5,-1
 350 75 l 1,6,-1
 275 0 l 1,7,-1
 250 -25 l 1,8,-1
 225 0 l 1,9,-1
 150 75 l 1,10,-1
 125 100 l 1,11,-1
 50 175 l 1,12,-1
 25 200 l 1,13,-1
 50 225 l 1,14,-1
 125 300 l 1,15,-1
 137.5 312.5 l 1,16,-1
 150 325 l 1,17,-1
 225 400 l 1,18,-1
 250 425 l 1,0,-1
250 375 m 1,19,-1
 175 300 l 1,20,-1
 162.5 287.5 l 1,21,-1
 150 275 l 1,22,-1
 75 200 l 1,23,-1
 250 25 l 1,24,-1
 325 100 l 1,25,-1
 425 200 l 1,26,-1
 350 275 l 1,27,-1
 325 300 l 1,28,-1
 250 375 l 1,19,-1
EndSplineSet
EndChar

StartChar: s
Encoding: 115 115 15
Width: 500
Flags: W
AnchorPoint: "vowel" 250 200 basechar 0
LayerCount: 2
Fore
SplineSet
250 425 m 1,0,-1
 275 400 l 1,1,-1
 250 375 l 1,2,-1
 175 300 l 1,3,-1
 150 275 l 1,4,-1
 75 200 l 1,5,-1
 250 25 l 1,6,-1
 325 100 l 1,7,-1
 350 125 l 1,8,-1
 425 200 l 1,9,-1
 450 225 l 1,10,-1
 475 200 l 1,11,-1
 450 175 l 1,12,-1
 375 100 l 1,13,-1
 350 75 l 1,14,-1
 250 -25 l 1,15,-1
 150 75 l 1,16,-1
 125 100 l 1,17,-1
 50 175 l 1,18,-1
 25 200 l 1,19,-1
 50 225 l 1,20,-1
 125 300 l 1,21,-1
 150 325 l 1,22,-1
 225 400 l 1,23,-1
 250 425 l 1,0,-1
EndSplineSet
EndChar

StartChar: g
Encoding: 103 103 16
Width: 500
Flags: W
AnchorPoint: "vowel" 250 200 basechar 0
LayerCount: 2
Fore
SplineSet
250 425 m 1,0,-1
 275 400 l 1,1,-1
 475 200 l 1,2,-1
 450 175 l 1,3,-1
 375 100 l 1,4,-1
 350 75 l 1,5,-1
 250 -25 l 1,6,-1
 150 75 l 1,7,-1
 125 100 l 1,8,-1
 50 175 l 1,9,-1
 25 200 l 1,10,-1
 50 225 l 1,11,-1
 75 200 l 1,12,-1
 250 25 l 1,13,-1
 325 100 l 1,14,-1
 350 125 l 1,15,-1
 425 200 l 1,16,-1
 350 275 l 1,17,-1
 325 300 l 1,18,-1
 250 375 l 1,19,-1
 225 400 l 1,20,-1
 250 425 l 1,0,-1
150 325 m 1,21,-1
 162.5 312.5 l 1,22,-1
 175 300 l 1,23,-1
 350 125 l 1,24,-1
 362.5 112.5 l 1,25,-1
 375 100 l 1,26,-1
 350 75 l 1,27,-1
 337.5 87.5 l 1,28,-1
 325 100 l 1,29,-1
 150 275 l 1,30,-1
 137.5 287.5 l 1,31,-1
 125 300 l 1,32,-1
 150 325 l 1,21,-1
EndSplineSet
EndChar

StartChar: asciitilde
Encoding: 126 126 17
Width: 500
Flags: W
LayerCount: 2
Fore
SplineSet
150 325 m 1,0,-1
 162.5 312.5 l 1,1,-1
 175 300 l 1,2,-1
 350 125 l 1,3,-1
 425 200 l 1,4,-1
 325 300 l 1,5,-1
 350 325 l 1,6,-1
 475 200 l 1,7,-1
 450 175 l 1,8,-1
 375 100 l 1,9,-1
 350 75 l 1,10,-1
 337.5 87.5 l 1,11,-1
 325 100 l 1,12,-1
 150 275 l 1,13,-1
 75 200 l 1,14,-1
 162.5 112.5 l 1,15,-1
 175 100 l 1,16,-1
 150 75 l 1,17,-1
 125 100 l 1,18,-1
 50 175 l 1,19,-1
 25 200 l 1,20,-1
 50 225 l 1,21,-1
 125 300 l 1,22,-1
 150 325 l 1,0,-1
EndSplineSet
EndChar

StartChar: j
Encoding: 106 106 18
Width: 500
Flags: W
AnchorPoint: "vowel" 250 200 basechar 0
LayerCount: 2
Fore
SplineSet
250 425 m 1,0,-1
 275 400 l 1,1,-1
 250 375 l 1,2,-1
 175 300 l 1,3,-1
 150 275 l 1,4,-1
 75 200 l 1,5,-1
 250 25 l 1,6,-1
 325 100 l 1,7,-1
 350 125 l 1,8,-1
 425 200 l 1,9,-1
 450 225 l 1,10,-1
 475 200 l 1,11,-1
 450 175 l 1,12,-1
 375 100 l 1,13,-1
 350 75 l 1,14,-1
 250 -25 l 1,15,-1
 150 75 l 1,16,-1
 125 100 l 1,17,-1
 50 175 l 1,18,-1
 25 200 l 1,19,-1
 50 225 l 1,20,-1
 125 300 l 1,21,-1
 150 325 l 1,22,-1
 225 400 l 1,23,-1
 250 425 l 1,0,-1
150 325 m 1,24,-1
 162.5 312.5 l 1,25,-1
 175 300 l 1,26,-1
 350 125 l 1,27,-1
 362.5 112.5 l 1,28,-1
 375 100 l 1,29,-1
 350 75 l 1,30,-1
 337.5 87.5 l 1,31,-1
 325 100 l 1,32,-1
 150 275 l 1,33,-1
 137.5 287.5 l 1,34,-1
 125 300 l 1,35,-1
 150 325 l 1,24,-1
250 325 m 1,36,-1
 375 200 l 1,37,-1
 250 75 l 1,38,-1
 125 200 l 1,39,-1
 250 325 l 1,36,-1
250 275 m 1,40,-1
 175 200 l 1,41,-1
 250 125 l 1,42,-1
 325 200 l 1,43,-1
 250 275 l 1,40,-1
EndSplineSet
EndChar

StartChar: c
Encoding: 99 99 19
Width: 500
Flags: W
AnchorPoint: "vowel" 250 200 basechar 0
LayerCount: 2
Fore
SplineSet
250 425 m 1,0,-1
 275 400 l 1,1,-1
 475 200 l 1,2,-1
 450 175 l 1,3,-1
 375 100 l 1,4,-1
 350 75 l 1,5,-1
 250 -25 l 1,6,-1
 137.5 87.5 l 1,7,-1
 125 100 l 1,8,-1
 150 125 l 1,9,-1
 175 100 l 1,10,-1
 250 25 l 1,11,-1
 325 100 l 1,12,-1
 350 125 l 1,13,-1
 425 200 l 1,14,-1
 250 375 l 1,15,-1
 162.5 287.5 l 1,16,-1
 150 275 l 1,17,-1
 125 300 l 1,18,-1
 137.5 312.5 l 1,19,-1
 225 400 l 1,20,-1
 250 425 l 1,0,-1
150 325 m 1,21,-1
 162.5 312.5 l 1,22,-1
 175 300 l 1,23,-1
 350 125 l 1,24,-1
 362.5 112.5 l 1,25,-1
 375 100 l 1,26,-1
 350 75 l 1,27,-1
 337.5 87.5 l 1,28,-1
 325 100 l 1,29,-1
 150 275 l 1,30,-1
 137.5 287.5 l 1,31,-1
 125 300 l 1,32,-1
 150 325 l 1,21,-1
EndSplineSet
EndChar

StartChar: w
Encoding: 119 119 20
Width: 0
VWidth: 1000
GlyphClass: 4
Flags: W
AnchorPoint: "vowel" 0 200 mark 0
LayerCount: 2
Fore
SplineSet
-200 25 m 1,0,-1
 -175 0 l 1,1,-1
 0 -175 l 1,2,-1
 75 -100 l 1,3,-1
 100 -75 l 1,4,-1
 175 0 l 1,5,-1
 200 25 l 1,6,-1
 225 0 l 1,7,-1
 200 -25 l 1,8,-1
 125 -100 l 1,9,-1
 100 -125 l 1,10,-1
 0 -225 l 1,11,-1
 -100 -125 l 1,12,-1
 -125 -100 l 1,13,-1
 -200 -25 l 1,14,-1
 -225 0 l 1,15,-1
 -200 25 l 1,0,-1
EndSplineSet
EndChar

StartChar: n
Encoding: 110 110 21
Width: 500
Flags: W
AnchorPoint: "vowel" 250 200 basechar 0
LayerCount: 2
Fore
SplineSet
250 425 m 1,0,-1
 475 200 l 1,1,-1
 450 175 l 1,2,-1
 425 200 l 1,3,-1
 250 375 l 1,4,-1
 175 300 l 1,5,-1
 150 275 l 1,6,-1
 75 200 l 1,7,-1
 250 25 l 1,8,-1
 275 0 l 1,9,-1
 250 -25 l 1,10,-1
 225 0 l 1,11,-1
 150 75 l 1,12,-1
 125 100 l 1,13,-1
 50 175 l 1,14,-1
 25 200 l 1,15,-1
 50 225 l 1,16,-1
 125 300 l 1,17,-1
 150 325 l 1,18,-1
 225 400 l 1,19,-1
 250 425 l 1,0,-1
150 325 m 1,20,-1
 162.5 312.5 l 1,21,-1
 175 300 l 1,22,-1
 350 125 l 1,23,-1
 362.5 112.5 l 1,24,-1
 375 100 l 1,25,-1
 350 75 l 1,26,-1
 337.5 87.5 l 1,27,-1
 325 100 l 1,28,-1
 150 275 l 1,29,-1
 137.5 287.5 l 1,30,-1
 125 300 l 1,31,-1
 150 325 l 1,20,-1
EndSplineSet
EndChar

StartChar: z
Encoding: 122 122 22
Width: 500
Flags: W
AnchorPoint: "vowel" 250 200 basechar 0
LayerCount: 2
Fore
SplineSet
250 425 m 1,0,-1
 275 400 l 1,1,-1
 250 375 l 1,2,-1
 175 300 l 1,3,-1
 150 275 l 1,4,-1
 75 200 l 1,5,-1
 250 25 l 1,6,-1
 325 100 l 1,7,-1
 350 125 l 1,8,-1
 425 200 l 1,9,-1
 450 225 l 1,10,-1
 475 200 l 1,11,-1
 450 175 l 1,12,-1
 375 100 l 1,13,-1
 350 75 l 1,14,-1
 250 -25 l 1,15,-1
 150 75 l 1,16,-1
 125 100 l 1,17,-1
 50 175 l 1,18,-1
 25 200 l 1,19,-1
 50 225 l 1,20,-1
 125 300 l 1,21,-1
 150 325 l 1,22,-1
 225 400 l 1,23,-1
 250 425 l 1,0,-1
150 325 m 1,24,-1
 162.5 312.5 l 1,25,-1
 175 300 l 1,26,-1
 350 125 l 1,27,-1
 362.5 112.5 l 1,28,-1
 375 100 l 1,29,-1
 350 75 l 1,30,-1
 337.5 87.5 l 1,31,-1
 325 100 l 1,32,-1
 150 275 l 1,33,-1
 137.5 287.5 l 1,34,-1
 125 300 l 1,35,-1
 150 325 l 1,24,-1
EndSplineSet
EndChar

StartChar: m
Encoding: 109 109 23
Width: 500
Flags: W
AnchorPoint: "vowel" 250 200 basechar 0
LayerCount: 2
Fore
SplineSet
250 425 m 1,0,-1
 475 200 l 1,1,-1
 450 175 l 1,2,-1
 425 200 l 1,3,-1
 250 375 l 1,4,-1
 175 300 l 1,5,-1
 150 275 l 1,6,-1
 75 200 l 1,7,-1
 250 25 l 1,8,-1
 275 0 l 1,9,-1
 250 -25 l 1,10,-1
 225 0 l 1,11,-1
 150 75 l 1,12,-1
 125 100 l 1,13,-1
 50 175 l 1,14,-1
 25 200 l 1,15,-1
 50 225 l 1,16,-1
 125 300 l 1,17,-1
 150 325 l 1,18,-1
 225 400 l 1,19,-1
 250 425 l 1,0,-1
EndSplineSet
EndChar

StartChar: v
Encoding: 118 118 24
Width: 500
Flags: W
AnchorPoint: "vowel" 250 200 basechar 0
LayerCount: 2
Fore
SplineSet
250 425 m 1,0,-1
 475 200 l 1,1,-1
 450 175 l 1,2,-1
 362.5 87.5 l 1,3,-1
 350 75 l 1,4,-1
 325 100 l 1,5,-1
 337.5 112.5 l 1,6,-1
 425 200 l 1,7,-1
 250 375 l 1,8,-1
 175 300 l 1,9,-1
 150 275 l 1,10,-1
 75 200 l 1,11,-1
 162.5 112.5 l 1,12,-1
 175 100 l 1,13,-1
 150 75 l 1,14,-1
 125 100 l 1,15,-1
 50 175 l 1,16,-1
 25 200 l 1,17,-1
 50 225 l 1,18,-1
 125 300 l 1,19,-1
 150 325 l 1,20,-1
 225 400 l 1,21,-1
 250 425 l 1,0,-1
150 325 m 1,22,-1
 162.5 312.5 l 1,23,-1
 175 300 l 1,24,-1
 350 125 l 1,25,-1
 362.5 112.5 l 1,26,-1
 375 100 l 1,27,-1
 350 75 l 1,28,-1
 337.5 87.5 l 1,29,-1
 325 100 l 1,30,-1
 150 275 l 1,31,-1
 137.5 287.5 l 1,32,-1
 125 300 l 1,33,-1
 150 325 l 1,22,-1
EndSplineSet
EndChar

StartChar: b
Encoding: 98 98 25
Width: 500
Flags: W
AnchorPoint: "vowel" 250 200 basechar 0
LayerCount: 2
Fore
SplineSet
250 425 m 1,0,-1
 362.5 312.5 l 1,1,-1
 375 300 l 1,2,-1
 350 275 l 1,3,-1
 325 300 l 1,4,-1
 250 375 l 1,5,-1
 175 300 l 1,6,-1
 150 275 l 1,7,-1
 75 200 l 1,8,-1
 250 25 l 1,9,-1
 325 100 l 1,10,-1
 350 125 l 1,11,-1
 375 100 l 1,12,-1
 350 75 l 1,13,-1
 250 -25 l 1,14,-1
 150 75 l 1,15,-1
 125 100 l 1,16,-1
 50 175 l 1,17,-1
 25 200 l 1,18,-1
 50 225 l 1,19,-1
 125 300 l 1,20,-1
 150 325 l 1,21,-1
 225 400 l 1,22,-1
 250 425 l 1,0,-1
150 325 m 1,23,-1
 162.5 312.5 l 1,24,-1
 175 300 l 1,25,-1
 350 125 l 1,26,-1
 362.5 112.5 l 1,27,-1
 375 100 l 1,28,-1
 350 75 l 1,29,-1
 337.5 87.5 l 1,30,-1
 325 100 l 1,31,-1
 150 275 l 1,32,-1
 137.5 287.5 l 1,33,-1
 125 300 l 1,34,-1
 150 325 l 1,23,-1
EndSplineSet
EndChar

StartChar: t
Encoding: 116 116 26
Width: 500
Flags: W
AnchorPoint: "vowel" 250 200 basechar 0
LayerCount: 2
Fore
SplineSet
150 325 m 1,0,-1
 175 300 l 1,1,-1
 150 275 l 1,2,-1
 75 200 l 1,3,-1
 250 25 l 1,4,-1
 325 100 l 1,5,-1
 350 125 l 1,6,-1
 425 200 l 1,7,-1
 350 275 l 1,8,-1
 325 300 l 1,9,-1
 350 325 l 1,10,-1
 375 300 l 1,11,-1
 475 200 l 1,12,-1
 450 175 l 1,13,-1
 375 100 l 1,14,-1
 350 75 l 1,15,-1
 250 -25 l 1,16,-1
 150 75 l 1,17,-1
 125 100 l 1,18,-1
 50 175 l 1,19,-1
 25 200 l 1,20,-1
 50 225 l 1,21,-1
 125 300 l 1,22,-1
 150 325 l 1,0,-1
EndSplineSet
EndChar

StartChar: grave
Encoding: 96 96 27
Width: 500
Flags: W
LayerCount: 2
Fore
SplineSet
50 225 m 1,0,-1
 75 200 l 1,1,-1
 50 175 l 1,2,-1
 25 200 l 1,3,-1
 50 225 l 1,0,-1
250 225 m 1,4,-1
 275 200 l 1,5,-1
 250 175 l 1,6,-1
 225 200 l 1,7,-1
 250 225 l 1,4,-1
EndSplineSet
EndChar

StartChar: H
Encoding: 72 72 28
Width: 500
Flags: W
AnchorPoint: "vowel" 250 200 basechar 0
LayerCount: 2
Fore
SplineSet
250 425 m 1,0,-1
 475 200 l 1,1,-1
 450 175 l 1,2,-1
 375 100 l 1,3,-1
 350 75 l 1,4,-1
 275 0 l 1,5,-1
 250 -25 l 1,6,-1
 225 0 l 1,7,-1
 250 25 l 1,8,-1
 325 100 l 1,9,-1
 350 125 l 1,10,-1
 425 200 l 1,11,-1
 250 375 l 1,12,-1
 175 300 l 1,13,-1
 150 275 l 1,14,-1
 75 200 l 1,15,-1
 50 175 l 1,16,-1
 25 200 l 1,17,-1
 50 225 l 1,18,-1
 125 300 l 1,19,-1
 150 325 l 1,20,-1
 225 400 l 1,21,-1
 250 425 l 1,0,-1
EndSplineSet
EndChar

StartChar: braceleft
Encoding: 123 123 29
Width: 500
Flags: W
LayerCount: 2
Fore
SplineSet
225 400 m 1,0,-1
 350 525 l 1,1,-1
 375 500 l 1,2,-1
 350 475 l 1,3,-1
 275 400 l 1,4,-1
 275 300 l 1,5,-1
 175 200 l 1,6,-1
 275 100 l 1,7,-1
 275 0 l 1,8,-1
 350 -75 l 1,9,-1
 375 -100 l 1,10,-1
 350 -125 l 1,11,-1
 225 0 l 1,12,-1
 225 100 l 1,13,-1
 125 200 l 1,14,-1
 225 300 l 1,15,-1
 225 400 l 1,0,-1
EndSplineSet
EndChar

StartChar: o
Encoding: 111 111 30
Width: 0
VWidth: 1000
GlyphClass: 4
Flags: W
AnchorPoint: "vowel" 0 200 mark 0
LayerCount: 2
Fore
SplineSet
-200 25 m 1,0,-1
 -175 0 l 1,1,-1
 0 -175 l 1,2,-1
 75 -100 l 1,3,-1
 0 -25 l 1,4,-1
 -12.5 -12.5 l 1,5,-1
 -25 0 l 1,6,-1
 0 25 l 1,7,-1
 12.5 12.5 l 1,8,-1
 25 0 l 1,9,-1
 100 -75 l 1,10,-1
 175 0 l 1,11,-1
 200 25 l 1,12,-1
 225 0 l 1,13,-1
 200 -25 l 1,14,-1
 125 -100 l 1,15,-1
 100 -125 l 1,16,-1
 0 -225 l 1,17,-1
 -100 -125 l 1,18,-1
 -125 -100 l 1,19,-1
 -200 -25 l 1,20,-1
 -225 0 l 1,21,-1
 -200 25 l 1,0,-1
EndSplineSet
EndChar

StartChar: bar
Encoding: 124 124 31
Width: 500
Flags: W
LayerCount: 2
Fore
SplineSet
225 600 m 1,0,-1
 250 625 l 1,1,-1
 275 600 l 1,2,-1
 275 -200 l 1,3,-1
 250 -225 l 1,4,-1
 225 -200 l 1,5,-1
 225 600 l 1,0,-1
EndSplineSet
EndChar

StartChar: I
Encoding: 73 73 32
Width: 0
VWidth: 1000
GlyphClass: 4
Flags: W
AnchorPoint: "vowel" 0 200 mark 0
LayerCount: 2
Fore
SplineSet
0 625 m 1,0,-1
 225 400 l 1,1,-1
 200 375 l 1,2,-1
 175 400 l 1,3,-1
 0 575 l 1,4,-1
 -75 500 l 1,5,-1
 -100 475 l 1,6,-1
 -175 400 l 1,7,-1
 -200 375 l 1,8,-1
 -225 400 l 1,9,-1
 -200 425 l 1,10,-1
 -125 500 l 1,11,-1
 -100 525 l 1,12,-1
 -25 600 l 1,13,-1
 0 625 l 1,0,-1
EndSplineSet
EndChar

StartChar: a
Encoding: 97 97 33
Width: 0
VWidth: 1000
GlyphClass: 4
Flags: W
AnchorPoint: "vowel" 0 200 mark 0
LayerCount: 2
Fore
SplineSet
0 625 m 1,0,-1
 225 400 l 1,1,-1
 200 375 l 1,2,-1
 175 400 l 1,3,-1
 0 575 l 1,4,-1
 -75 500 l 1,5,-1
 12.5 412.5 l 1,6,-1
 25 400 l 1,7,-1
 0 375 l 1,8,-1
 -25 400 l 1,9,-1
 -100 475 l 1,10,-1
 -175 400 l 1,11,-1
 -200 375 l 1,12,-1
 -225 400 l 1,13,-1
 -200 425 l 1,14,-1
 -125 500 l 1,15,-1
 -100 525 l 1,16,-1
 -25 600 l 1,17,-1
 0 625 l 1,0,-1
EndSplineSet
EndChar

StartChar: u
Encoding: 117 117 34
Width: 0
VWidth: 1000
GlyphClass: 4
Flags: W
AnchorPoint: "vowel" 0 200 mark 0
LayerCount: 2
Fore
SplineSet
0 25 m 1,0,-1
 12.5 12.5 l 1,1,-1
 25 0 l 1,2,-1
 100 -75 l 1,3,-1
 112.5 -87.5 l 1,4,-1
 125 -100 l 1,5,-1
 100 -125 l 1,6,-1
 87.5 -112.5 l 1,7,-1
 75 -100 l 1,8,-1
 0 -25 l 1,9,-1
 -12.5 -12.5 l 1,10,-1
 -25 0 l 1,11,-1
 0 25 l 1,0,-1
EndSplineSet
EndChar

StartChar: underscore
Encoding: 95 95 35
Width: 500
Flags: W
LayerCount: 2
Fore
SplineSet
250 25 m 1,0,-1
 275 0 l 1,1,-1
 250 -25 l 1,2,-1
 225 0 l 1,3,-1
 250 25 l 1,0,-1
EndSplineSet
EndChar

StartChar: K
Encoding: 75 75 36
Width: 500
Flags: W
AnchorPoint: "vowel" 250 200 basechar 0
LayerCount: 2
Fore
SplineSet
250 425 m 1,0,-1
 275 400 l 1,1,-1
 475 200 l 1,2,-1
 450 175 l 1,3,-1
 375 100 l 1,4,-1
 350 75 l 1,5,-1
 250 -25 l 1,6,-1
 150 75 l 1,7,-1
 125 100 l 1,8,-1
 50 175 l 1,9,-1
 25 200 l 1,10,-1
 50 225 l 1,11,-1
 75 200 l 1,12,-1
 250 25 l 1,13,-1
 325 100 l 1,14,-1
 350 125 l 1,15,-1
 425 200 l 1,16,-1
 350 275 l 1,17,-1
 325 300 l 1,18,-1
 250 375 l 1,19,-1
 225 400 l 1,20,-1
 250 425 l 1,0,-1
EndSplineSet
EndChar

StartChar: x
Encoding: 120 120 37
Width: 500
Flags: W
AnchorPoint: "vowel" 250 200 basechar 0
LayerCount: 2
Fore
SplineSet
250 425 m 1,0,-1
 475 200 l 1,1,-1
 450 175 l 1,2,-1
 375 100 l 1,3,-1
 350 75 l 1,4,-1
 275 0 l 1,5,-1
 250 -25 l 1,6,-1
 225 0 l 1,7,-1
 250 25 l 1,8,-1
 325 100 l 1,9,-1
 350 125 l 1,10,-1
 425 200 l 1,11,-1
 250 375 l 1,12,-1
 175 300 l 1,13,-1
 150 275 l 1,14,-1
 75 200 l 1,15,-1
 50 175 l 1,16,-1
 25 200 l 1,17,-1
 50 225 l 1,18,-1
 125 300 l 1,19,-1
 150 325 l 1,20,-1
 225 400 l 1,21,-1
 250 425 l 1,0,-1
150 325 m 1,22,-1
 162.5 312.5 l 1,23,-1
 175 300 l 1,24,-1
 350 125 l 1,25,-1
 362.5 112.5 l 1,26,-1
 375 100 l 1,27,-1
 350 75 l 1,28,-1
 337.5 87.5 l 1,29,-1
 325 100 l 1,30,-1
 150 275 l 1,31,-1
 137.5 287.5 l 1,32,-1
 125 300 l 1,33,-1
 150 325 l 1,22,-1
EndSplineSet
EndChar

StartChar: P
Encoding: 80 80 38
Width: 500
Flags: W
AnchorPoint: "vowel" 250 200 basechar 0
LayerCount: 2
Fore
SplineSet
250 425 m 1,0,-1
 362.5 312.5 l 1,1,-1
 375 300 l 1,2,-1
 350 275 l 1,3,-1
 325 300 l 1,4,-1
 250 375 l 1,5,-1
 175 300 l 1,6,-1
 150 275 l 1,7,-1
 75 200 l 1,8,-1
 250 25 l 1,9,-1
 325 100 l 1,10,-1
 350 125 l 1,11,-1
 375 100 l 1,12,-1
 350 75 l 1,13,-1
 250 -25 l 1,14,-1
 150 75 l 1,15,-1
 125 100 l 1,16,-1
 50 175 l 1,17,-1
 25 200 l 1,18,-1
 50 225 l 1,19,-1
 125 300 l 1,20,-1
 150 325 l 1,21,-1
 225 400 l 1,22,-1
 250 425 l 1,0,-1
EndSplineSet
EndChar

StartChar: D
Encoding: 68 68 39
Width: 500
Flags: W
AnchorPoint: "vowel" 250 200 basechar 0
LayerCount: 2
Fore
SplineSet
150 325 m 1,0,-1
 175 300 l 1,1,-1
 150 275 l 1,2,-1
 75 200 l 1,3,-1
 250 25 l 1,4,-1
 325 100 l 1,5,-1
 350 125 l 1,6,-1
 425 200 l 1,7,-1
 350 275 l 1,8,-1
 325 300 l 1,9,-1
 350 325 l 1,10,-1
 375 300 l 1,11,-1
 475 200 l 1,12,-1
 450 175 l 1,13,-1
 375 100 l 1,14,-1
 350 75 l 1,15,-1
 250 -25 l 1,16,-1
 150 75 l 1,17,-1
 125 100 l 1,18,-1
 50 175 l 1,19,-1
 25 200 l 1,20,-1
 50 225 l 1,21,-1
 125 300 l 1,22,-1
 150 325 l 1,0,-1
150 325 m 1,23,-1
 162.5 312.5 l 1,24,-1
 175 300 l 1,25,-1
 350 125 l 1,26,-1
 362.5 112.5 l 1,27,-1
 375 100 l 1,28,-1
 350 75 l 1,29,-1
 337.5 87.5 l 1,30,-1
 325 100 l 1,31,-1
 150 275 l 1,32,-1
 137.5 287.5 l 1,33,-1
 125 300 l 1,34,-1
 150 325 l 1,23,-1
EndSplineSet
EndChar

StartChar: E
Encoding: 69 69 40
Width: 0
VWidth: 1000
GlyphClass: 4
Flags: W
AnchorPoint: "vowel" 0 200 mark 0
LayerCount: 2
Fore
SplineSet
-100 525 m 1,0,-1
 -87.5 512.5 l 1,1,-1
 -75 500 l 1,2,-1
 0 425 l 1,3,-1
 12.5 412.5 l 1,4,-1
 25 400 l 1,5,-1
 0 375 l 1,6,-1
 -12.5 387.5 l 1,7,-1
 -25 400 l 1,8,-1
 -100 475 l 1,9,-1
 -112.5 487.5 l 1,10,-1
 -125 500 l 1,11,-1
 -100 525 l 1,0,-1
EndSplineSet
EndChar

StartChar: Q
Encoding: 81 81 41
Width: 500
Flags: W
AnchorPoint: "vowel" 250 200 basechar 0
LayerCount: 2
Fore
SplineSet
250 425 m 1,0,-1
 275 400 l 1,1,-1
 475 200 l 1,2,-1
 450 175 l 1,3,-1
 375 100 l 1,4,-1
 350 75 l 1,5,-1
 250 -25 l 1,6,-1
 137.5 87.5 l 1,7,-1
 125 100 l 1,8,-1
 150 125 l 1,9,-1
 175 100 l 1,10,-1
 250 25 l 1,11,-1
 325 100 l 1,12,-1
 350 125 l 1,13,-1
 425 200 l 1,14,-1
 250 375 l 1,15,-1
 162.5 287.5 l 1,16,-1
 150 275 l 1,17,-1
 125 300 l 1,18,-1
 137.5 312.5 l 1,19,-1
 225 400 l 1,20,-1
 250 425 l 1,0,-1
EndSplineSet
EndChar

StartChar: y
Encoding: 121 121 42
Width: 500
Flags: W
AnchorPoint: "vowel" 250 200 basechar 0
LayerCount: 2
Fore
SplineSet
250 425 m 1,0,-1
 275 400 l 1,1,-1
 475 200 l 1,2,-1
 450 175 l 1,3,-1
 375 100 l 1,4,-1
 350 75 l 1,5,-1
 250 -25 l 1,6,-1
 137.5 87.5 l 1,7,-1
 125 100 l 1,8,-1
 150 125 l 1,9,-1
 175 100 l 1,10,-1
 250 25 l 1,11,-1
 325 100 l 1,12,-1
 350 125 l 1,13,-1
 425 200 l 1,14,-1
 250 375 l 1,15,-1
 162.5 287.5 l 1,16,-1
 150 275 l 1,17,-1
 125 300 l 1,18,-1
 137.5 312.5 l 1,19,-1
 225 400 l 1,20,-1
 250 425 l 1,0,-1
150 325 m 1,21,-1
 162.5 312.5 l 1,22,-1
 175 300 l 1,23,-1
 350 125 l 1,24,-1
 362.5 112.5 l 1,25,-1
 375 100 l 1,26,-1
 350 75 l 1,27,-1
 337.5 87.5 l 1,28,-1
 325 100 l 1,29,-1
 150 275 l 1,30,-1
 137.5 287.5 l 1,31,-1
 125 300 l 1,32,-1
 150 325 l 1,21,-1
250 325 m 1,33,-1
 375 200 l 1,34,-1
 250 75 l 1,35,-1
 125 200 l 1,36,-1
 250 325 l 1,33,-1
250 275 m 1,37,-1
 175 200 l 1,38,-1
 250 125 l 1,39,-1
 325 200 l 1,40,-1
 250 275 l 1,37,-1
EndSplineSet
EndChar

StartChar: L
Encoding: 76 76 43
Width: 500
Flags: W
AnchorPoint: "vowel" 250 200 basechar 0
LayerCount: 2
Fore
SplineSet
250 425 m 1,0,-1
 275 400 l 1,1,-1
 362.5 312.5 l 1,2,-1
 475 200 l 1,3,-1
 450 175 l 1,4,-1
 375 100 l 1,5,-1
 350 75 l 1,6,-1
 275 0 l 1,7,-1
 250 -25 l 1,8,-1
 225 0 l 1,9,-1
 150 75 l 1,10,-1
 125 100 l 1,11,-1
 50 175 l 1,12,-1
 25 200 l 1,13,-1
 50 225 l 1,14,-1
 125 300 l 1,15,-1
 137.5 312.5 l 1,16,-1
 150 325 l 1,17,-1
 225 400 l 1,18,-1
 250 425 l 1,0,-1
250 375 m 1,19,-1
 175 300 l 1,20,-1
 162.5 287.5 l 1,21,-1
 150 275 l 1,22,-1
 75 200 l 1,23,-1
 250 25 l 1,24,-1
 325 100 l 1,25,-1
 425 200 l 1,26,-1
 350 275 l 1,27,-1
 325 300 l 1,28,-1
 250 375 l 1,19,-1
150 325 m 1,29,-1
 162.5 312.5 l 1,30,-1
 175 300 l 1,31,-1
 350 125 l 1,32,-1
 362.5 112.5 l 1,33,-1
 375 100 l 1,34,-1
 350 75 l 1,35,-1
 337.5 87.5 l 1,36,-1
 325 100 l 1,37,-1
 150 275 l 1,38,-1
 137.5 287.5 l 1,39,-1
 125 300 l 1,40,-1
 150 325 l 1,29,-1
EndSplineSet
EndChar

StartChar: J
Encoding: 74 74 44
Width: 500
Flags: W
AnchorPoint: "vowel" 250 200 basechar 0
LayerCount: 2
Fore
SplineSet
250 425 m 1,0,-1
 275 400 l 1,1,-1
 250 375 l 1,2,-1
 175 300 l 1,3,-1
 150 275 l 1,4,-1
 75 200 l 1,5,-1
 250 25 l 1,6,-1
 325 100 l 1,7,-1
 350 125 l 1,8,-1
 425 200 l 1,9,-1
 450 225 l 1,10,-1
 475 200 l 1,11,-1
 450 175 l 1,12,-1
 375 100 l 1,13,-1
 350 75 l 1,14,-1
 250 -25 l 1,15,-1
 150 75 l 1,16,-1
 125 100 l 1,17,-1
 50 175 l 1,18,-1
 25 200 l 1,19,-1
 50 225 l 1,20,-1
 125 300 l 1,21,-1
 150 325 l 1,22,-1
 225 400 l 1,23,-1
 250 425 l 1,0,-1
150 325 m 1,24,-1
 162.5 312.5 l 1,25,-1
 175 300 l 1,26,-1
 350 125 l 1,27,-1
 362.5 112.5 l 1,28,-1
 375 100 l 1,29,-1
 350 75 l 1,30,-1
 337.5 87.5 l 1,31,-1
 325 100 l 1,32,-1
 150 275 l 1,33,-1
 137.5 287.5 l 1,34,-1
 125 300 l 1,35,-1
 150 325 l 1,24,-1
250 325 m 1,36,-1
 375 200 l 1,37,-1
 250 75 l 1,38,-1
 125 200 l 1,39,-1
 250 325 l 1,36,-1
250 275 m 1,40,-1
 175 200 l 1,41,-1
 250 125 l 1,42,-1
 325 200 l 1,43,-1
 250 275 l 1,40,-1
EndSplineSet
EndChar

StartChar: asciicircum
Encoding: 94 94 45
Width: 500
Flags: W
LayerCount: 2
Fore
SplineSet
250 425 m 1,0,-1
 275 400 l 1,1,-1
 250 375 l 1,2,-1
 225 400 l 1,3,-1
 250 425 l 1,0,-1
EndSplineSet
EndChar

StartChar: G
Encoding: 71 71 46
Width: 500
Flags: W
AnchorPoint: "vowel" 250 200 basechar 0
LayerCount: 2
Fore
SplineSet
250 425 m 1,0,-1
 275 400 l 1,1,-1
 475 200 l 1,2,-1
 450 175 l 1,3,-1
 375 100 l 1,4,-1
 350 75 l 1,5,-1
 250 -25 l 1,6,-1
 150 75 l 1,7,-1
 125 100 l 1,8,-1
 50 175 l 1,9,-1
 25 200 l 1,10,-1
 50 225 l 1,11,-1
 75 200 l 1,12,-1
 250 25 l 1,13,-1
 325 100 l 1,14,-1
 350 125 l 1,15,-1
 425 200 l 1,16,-1
 350 275 l 1,17,-1
 325 300 l 1,18,-1
 250 375 l 1,19,-1
 225 400 l 1,20,-1
 250 425 l 1,0,-1
150 325 m 1,21,-1
 162.5 312.5 l 1,22,-1
 175 300 l 1,23,-1
 350 125 l 1,24,-1
 362.5 112.5 l 1,25,-1
 375 100 l 1,26,-1
 350 75 l 1,27,-1
 337.5 87.5 l 1,28,-1
 325 100 l 1,29,-1
 150 275 l 1,30,-1
 137.5 287.5 l 1,31,-1
 125 300 l 1,32,-1
 150 325 l 1,21,-1
EndSplineSet
EndChar

StartChar: S
Encoding: 83 83 47
Width: 500
Flags: W
AnchorPoint: "vowel" 250 200 basechar 0
LayerCount: 2
Fore
SplineSet
250 425 m 1,0,-1
 275 400 l 1,1,-1
 250 375 l 1,2,-1
 175 300 l 1,3,-1
 150 275 l 1,4,-1
 75 200 l 1,5,-1
 250 25 l 1,6,-1
 325 100 l 1,7,-1
 350 125 l 1,8,-1
 425 200 l 1,9,-1
 450 225 l 1,10,-1
 475 200 l 1,11,-1
 450 175 l 1,12,-1
 375 100 l 1,13,-1
 350 75 l 1,14,-1
 250 -25 l 1,15,-1
 150 75 l 1,16,-1
 125 100 l 1,17,-1
 50 175 l 1,18,-1
 25 200 l 1,19,-1
 50 225 l 1,20,-1
 125 300 l 1,21,-1
 150 325 l 1,22,-1
 225 400 l 1,23,-1
 250 425 l 1,0,-1
EndSplineSet
EndChar

StartChar: R
Encoding: 82 82 48
Width: 500
Flags: W
AnchorPoint: "vowel" 250 200 basechar 0
LayerCount: 2
Fore
SplineSet
250 425 m 1,0,-1
 275 400 l 1,1,-1
 362.5 312.5 l 1,2,-1
 475 200 l 1,3,-1
 450 175 l 1,4,-1
 375 100 l 1,5,-1
 350 75 l 1,6,-1
 275 0 l 1,7,-1
 250 -25 l 1,8,-1
 225 0 l 1,9,-1
 150 75 l 1,10,-1
 125 100 l 1,11,-1
 50 175 l 1,12,-1
 25 200 l 1,13,-1
 50 225 l 1,14,-1
 125 300 l 1,15,-1
 137.5 312.5 l 1,16,-1
 150 325 l 1,17,-1
 225 400 l 1,18,-1
 250 425 l 1,0,-1
250 375 m 1,19,-1
 175 300 l 1,20,-1
 162.5 287.5 l 1,21,-1
 150 275 l 1,22,-1
 75 200 l 1,23,-1
 250 25 l 1,24,-1
 325 100 l 1,25,-1
 425 200 l 1,26,-1
 350 275 l 1,27,-1
 325 300 l 1,28,-1
 250 375 l 1,19,-1
EndSplineSet
EndChar

StartChar: F
Encoding: 70 70 49
Width: 500
Flags: W
AnchorPoint: "vowel" 250 200 basechar 0
LayerCount: 2
Fore
SplineSet
250 425 m 1,0,-1
 475 200 l 1,1,-1
 450 175 l 1,2,-1
 362.5 87.5 l 1,3,-1
 350 75 l 1,4,-1
 325 100 l 1,5,-1
 337.5 112.5 l 1,6,-1
 425 200 l 1,7,-1
 250 375 l 1,8,-1
 175 300 l 1,9,-1
 150 275 l 1,10,-1
 75 200 l 1,11,-1
 162.5 112.5 l 1,12,-1
 175 100 l 1,13,-1
 150 75 l 1,14,-1
 125 100 l 1,15,-1
 50 175 l 1,16,-1
 25 200 l 1,17,-1
 50 225 l 1,18,-1
 125 300 l 1,19,-1
 150 325 l 1,20,-1
 225 400 l 1,21,-1
 250 425 l 1,0,-1
EndSplineSet
EndChar

StartChar: bracketright
Encoding: 93 93 50
Width: 500
Flags: W
LayerCount: 2
Fore
SplineSet
375 400 m 1,0,-1
 375 0 l 1,1,-1
 250 -125 l 1,2,-1
 125 0 l 1,3,-1
 150 25 l 1,4,-1
 175 0 l 1,5,-1
 250 -75 l 1,6,-1
 325 0 l 1,7,-1
 325 400 l 1,8,-1
 250 475 l 1,9,-1
 175 400 l 1,10,-1
 150 375 l 1,11,-1
 125 400 l 1,12,-1
 250 525 l 1,13,-1
 375 400 l 1,0,-1
EndSplineSet
EndChar

StartChar: B
Encoding: 66 66 51
Width: 500
Flags: W
AnchorPoint: "vowel" 250 200 basechar 0
LayerCount: 2
Fore
SplineSet
250 425 m 1,0,-1
 362.5 312.5 l 1,1,-1
 375 300 l 1,2,-1
 350 275 l 1,3,-1
 325 300 l 1,4,-1
 250 375 l 1,5,-1
 175 300 l 1,6,-1
 150 275 l 1,7,-1
 75 200 l 1,8,-1
 250 25 l 1,9,-1
 325 100 l 1,10,-1
 350 125 l 1,11,-1
 375 100 l 1,12,-1
 350 75 l 1,13,-1
 250 -25 l 1,14,-1
 150 75 l 1,15,-1
 125 100 l 1,16,-1
 50 175 l 1,17,-1
 25 200 l 1,18,-1
 50 225 l 1,19,-1
 125 300 l 1,20,-1
 150 325 l 1,21,-1
 225 400 l 1,22,-1
 250 425 l 1,0,-1
150 325 m 1,23,-1
 162.5 312.5 l 1,24,-1
 175 300 l 1,25,-1
 350 125 l 1,26,-1
 362.5 112.5 l 1,27,-1
 375 100 l 1,28,-1
 350 75 l 1,29,-1
 337.5 87.5 l 1,30,-1
 325 100 l 1,31,-1
 150 275 l 1,32,-1
 137.5 287.5 l 1,33,-1
 125 300 l 1,34,-1
 150 325 l 1,23,-1
EndSplineSet
EndChar

StartChar: V
Encoding: 86 86 52
Width: 500
Flags: W
AnchorPoint: "vowel" 250 200 basechar 0
LayerCount: 2
Fore
SplineSet
250 425 m 1,0,-1
 475 200 l 1,1,-1
 450 175 l 1,2,-1
 362.5 87.5 l 1,3,-1
 350 75 l 1,4,-1
 325 100 l 1,5,-1
 337.5 112.5 l 1,6,-1
 425 200 l 1,7,-1
 250 375 l 1,8,-1
 175 300 l 1,9,-1
 150 275 l 1,10,-1
 75 200 l 1,11,-1
 162.5 112.5 l 1,12,-1
 175 100 l 1,13,-1
 150 75 l 1,14,-1
 125 100 l 1,15,-1
 50 175 l 1,16,-1
 25 200 l 1,17,-1
 50 225 l 1,18,-1
 125 300 l 1,19,-1
 150 325 l 1,20,-1
 225 400 l 1,21,-1
 250 425 l 1,0,-1
150 325 m 1,22,-1
 162.5 312.5 l 1,23,-1
 175 300 l 1,24,-1
 350 125 l 1,25,-1
 362.5 112.5 l 1,26,-1
 375 100 l 1,27,-1
 350 75 l 1,28,-1
 337.5 87.5 l 1,29,-1
 325 100 l 1,30,-1
 150 275 l 1,31,-1
 137.5 287.5 l 1,32,-1
 125 300 l 1,33,-1
 150 325 l 1,22,-1
EndSplineSet
EndChar

StartChar: M
Encoding: 77 77 53
Width: 500
Flags: W
AnchorPoint: "vowel" 250 200 basechar 0
LayerCount: 2
Fore
SplineSet
250 425 m 1,0,-1
 475 200 l 1,1,-1
 450 175 l 1,2,-1
 425 200 l 1,3,-1
 250 375 l 1,4,-1
 175 300 l 1,5,-1
 150 275 l 1,6,-1
 75 200 l 1,7,-1
 250 25 l 1,8,-1
 275 0 l 1,9,-1
 250 -25 l 1,10,-1
 225 0 l 1,11,-1
 150 75 l 1,12,-1
 125 100 l 1,13,-1
 50 175 l 1,14,-1
 25 200 l 1,15,-1
 50 225 l 1,16,-1
 125 300 l 1,17,-1
 150 325 l 1,18,-1
 225 400 l 1,19,-1
 250 425 l 1,0,-1
EndSplineSet
EndChar

StartChar: Z
Encoding: 90 90 54
Width: 500
Flags: W
AnchorPoint: "vowel" 250 200 basechar 0
LayerCount: 2
Fore
SplineSet
250 425 m 1,0,-1
 275 400 l 1,1,-1
 250 375 l 1,2,-1
 175 300 l 1,3,-1
 150 275 l 1,4,-1
 75 200 l 1,5,-1
 250 25 l 1,6,-1
 325 100 l 1,7,-1
 350 125 l 1,8,-1
 425 200 l 1,9,-1
 450 225 l 1,10,-1
 475 200 l 1,11,-1
 450 175 l 1,12,-1
 375 100 l 1,13,-1
 350 75 l 1,14,-1
 250 -25 l 1,15,-1
 150 75 l 1,16,-1
 125 100 l 1,17,-1
 50 175 l 1,18,-1
 25 200 l 1,19,-1
 50 225 l 1,20,-1
 125 300 l 1,21,-1
 150 325 l 1,22,-1
 225 400 l 1,23,-1
 250 425 l 1,0,-1
150 325 m 1,24,-1
 162.5 312.5 l 1,25,-1
 175 300 l 1,26,-1
 350 125 l 1,27,-1
 362.5 112.5 l 1,28,-1
 375 100 l 1,29,-1
 350 75 l 1,30,-1
 337.5 87.5 l 1,31,-1
 325 100 l 1,32,-1
 150 275 l 1,33,-1
 137.5 287.5 l 1,34,-1
 125 300 l 1,35,-1
 150 325 l 1,24,-1
EndSplineSet
EndChar

StartChar: N
Encoding: 78 78 55
Width: 500
Flags: W
AnchorPoint: "vowel" 250 200 basechar 0
LayerCount: 2
Fore
SplineSet
250 425 m 1,0,-1
 475 200 l 1,1,-1
 450 175 l 1,2,-1
 425 200 l 1,3,-1
 250 375 l 1,4,-1
 175 300 l 1,5,-1
 150 275 l 1,6,-1
 75 200 l 1,7,-1
 250 25 l 1,8,-1
 275 0 l 1,9,-1
 250 -25 l 1,10,-1
 225 0 l 1,11,-1
 150 75 l 1,12,-1
 125 100 l 1,13,-1
 50 175 l 1,14,-1
 25 200 l 1,15,-1
 50 225 l 1,16,-1
 125 300 l 1,17,-1
 150 325 l 1,18,-1
 225 400 l 1,19,-1
 250 425 l 1,0,-1
150 325 m 1,20,-1
 162.5 312.5 l 1,21,-1
 175 300 l 1,22,-1
 350 125 l 1,23,-1
 362.5 112.5 l 1,24,-1
 375 100 l 1,25,-1
 350 75 l 1,26,-1
 337.5 87.5 l 1,27,-1
 325 100 l 1,28,-1
 150 275 l 1,29,-1
 137.5 287.5 l 1,30,-1
 125 300 l 1,31,-1
 150 325 l 1,20,-1
EndSplineSet
EndChar

StartChar: W
Encoding: 87 87 56
Width: 0
VWidth: 1000
GlyphClass: 4
Flags: W
AnchorPoint: "vowel" 0 200 mark 0
LayerCount: 2
Fore
SplineSet
-200 25 m 1,0,-1
 -175 0 l 1,1,-1
 0 -175 l 1,2,-1
 75 -100 l 1,3,-1
 100 -75 l 1,4,-1
 175 0 l 1,5,-1
 200 25 l 1,6,-1
 225 0 l 1,7,-1
 200 -25 l 1,8,-1
 125 -100 l 1,9,-1
 100 -125 l 1,10,-1
 0 -225 l 1,11,-1
 -100 -125 l 1,12,-1
 -125 -100 l 1,13,-1
 -200 -25 l 1,14,-1
 -225 0 l 1,15,-1
 -200 25 l 1,0,-1
EndSplineSet
EndChar

StartChar: C
Encoding: 67 67 57
Width: 500
Flags: W
AnchorPoint: "vowel" 250 200 basechar 0
LayerCount: 2
Fore
SplineSet
250 425 m 1,0,-1
 275 400 l 1,1,-1
 475 200 l 1,2,-1
 450 175 l 1,3,-1
 375 100 l 1,4,-1
 350 75 l 1,5,-1
 250 -25 l 1,6,-1
 137.5 87.5 l 1,7,-1
 125 100 l 1,8,-1
 150 125 l 1,9,-1
 175 100 l 1,10,-1
 250 25 l 1,11,-1
 325 100 l 1,12,-1
 350 125 l 1,13,-1
 425 200 l 1,14,-1
 250 375 l 1,15,-1
 162.5 287.5 l 1,16,-1
 150 275 l 1,17,-1
 125 300 l 1,18,-1
 137.5 312.5 l 1,19,-1
 225 400 l 1,20,-1
 250 425 l 1,0,-1
150 325 m 1,21,-1
 162.5 312.5 l 1,22,-1
 175 300 l 1,23,-1
 350 125 l 1,24,-1
 362.5 112.5 l 1,25,-1
 375 100 l 1,26,-1
 350 75 l 1,27,-1
 337.5 87.5 l 1,28,-1
 325 100 l 1,29,-1
 150 275 l 1,30,-1
 137.5 287.5 l 1,31,-1
 125 300 l 1,32,-1
 150 325 l 1,21,-1
EndSplineSet
EndChar

StartChar: U
Encoding: 85 85 58
Width: 0
VWidth: 1000
GlyphClass: 4
Flags: W
AnchorPoint: "vowel" 0 200 mark 0
LayerCount: 2
Fore
SplineSet
0 25 m 1,0,-1
 12.5 12.5 l 1,1,-1
 25 0 l 1,2,-1
 100 -75 l 1,3,-1
 112.5 -87.5 l 1,4,-1
 125 -100 l 1,5,-1
 100 -125 l 1,6,-1
 87.5 -112.5 l 1,7,-1
 75 -100 l 1,8,-1
 0 -25 l 1,9,-1
 -12.5 -12.5 l 1,10,-1
 -25 0 l 1,11,-1
 0 25 l 1,0,-1
EndSplineSet
EndChar

StartChar: A
Encoding: 65 65 59
Width: 0
VWidth: 1000
GlyphClass: 4
Flags: W
AnchorPoint: "vowel" 0 200 mark 0
LayerCount: 2
Fore
SplineSet
0 625 m 1,0,-1
 225 400 l 1,1,-1
 200 375 l 1,2,-1
 175 400 l 1,3,-1
 0 575 l 1,4,-1
 -75 500 l 1,5,-1
 12.5 412.5 l 1,6,-1
 25 400 l 1,7,-1
 0 375 l 1,8,-1
 -25 400 l 1,9,-1
 -100 475 l 1,10,-1
 -175 400 l 1,11,-1
 -200 375 l 1,12,-1
 -225 400 l 1,13,-1
 -200 425 l 1,14,-1
 -125 500 l 1,15,-1
 -100 525 l 1,16,-1
 -25 600 l 1,17,-1
 0 625 l 1,0,-1
EndSplineSet
EndChar

StartChar: i
Encoding: 105 105 60
Width: 0
VWidth: 1000
GlyphClass: 4
Flags: W
AnchorPoint: "vowel" 0 200 mark 0
LayerCount: 2
Fore
SplineSet
0 625 m 1,0,-1
 225 400 l 1,1,-1
 200 375 l 1,2,-1
 175 400 l 1,3,-1
 0 575 l 1,4,-1
 -75 500 l 1,5,-1
 -100 475 l 1,6,-1
 -175 400 l 1,7,-1
 -200 375 l 1,8,-1
 -225 400 l 1,9,-1
 -200 425 l 1,10,-1
 -125 500 l 1,11,-1
 -100 525 l 1,12,-1
 -25 600 l 1,13,-1
 0 625 l 1,0,-1
EndSplineSet
EndChar

StartChar: backslash
Encoding: 92 92 61
Width: 500
Flags: W
LayerCount: 2
Fore
SplineSet
150 325 m 1,0,-1
 162.5 312.5 l 1,1,-1
 175 300 l 1,2,-1
 350 125 l 1,3,-1
 362.5 112.5 l 1,4,-1
 375 100 l 1,5,-1
 350 75 l 1,6,-1
 337.5 87.5 l 1,7,-1
 325 100 l 1,8,-1
 150 275 l 1,9,-1
 137.5 287.5 l 1,10,-1
 125 300 l 1,11,-1
 150 325 l 1,0,-1
EndSplineSet
EndChar

StartChar: O
Encoding: 79 79 62
Width: 0
VWidth: 1000
GlyphClass: 4
Flags: W
AnchorPoint: "vowel" 0 200 mark 0
LayerCount: 2
Fore
SplineSet
-200 25 m 1,0,-1
 -175 0 l 1,1,-1
 0 -175 l 1,2,-1
 75 -100 l 1,3,-1
 0 -25 l 1,4,-1
 -12.5 -12.5 l 1,5,-1
 -25 0 l 1,6,-1
 0 25 l 1,7,-1
 12.5 12.5 l 1,8,-1
 25 0 l 1,9,-1
 100 -75 l 1,10,-1
 175 0 l 1,11,-1
 200 25 l 1,12,-1
 225 0 l 1,13,-1
 200 -25 l 1,14,-1
 125 -100 l 1,15,-1
 100 -125 l 1,16,-1
 0 -225 l 1,17,-1
 -100 -125 l 1,18,-1
 -125 -100 l 1,19,-1
 -200 -25 l 1,20,-1
 -225 0 l 1,21,-1
 -200 25 l 1,0,-1
EndSplineSet
EndChar

StartChar: bracketleft
Encoding: 91 91 63
Width: 500
Flags: W
LayerCount: 2
Fore
SplineSet
125 400 m 1,0,-1
 250 525 l 1,1,-1
 375 400 l 1,2,-1
 350 375 l 1,3,-1
 325 400 l 1,4,-1
 250 475 l 1,5,-1
 175 400 l 1,6,-1
 175 0 l 1,7,-1
 250 -75 l 1,8,-1
 325 0 l 1,9,-1
 350 25 l 1,10,-1
 375 0 l 1,11,-1
 250 -125 l 1,12,-1
 125 0 l 1,13,-1
 125 400 l 1,0,-1
EndSplineSet
EndChar

StartChar: h
Encoding: 104 104 64
Width: 500
Flags: W
AnchorPoint: "vowel" 250 200 basechar 0
LayerCount: 2
Fore
SplineSet
250 425 m 1,0,-1
 475 200 l 1,1,-1
 450 175 l 1,2,-1
 375 100 l 1,3,-1
 350 75 l 1,4,-1
 275 0 l 1,5,-1
 250 -25 l 1,6,-1
 225 0 l 1,7,-1
 250 25 l 1,8,-1
 325 100 l 1,9,-1
 350 125 l 1,10,-1
 425 200 l 1,11,-1
 250 375 l 1,12,-1
 175 300 l 1,13,-1
 150 275 l 1,14,-1
 75 200 l 1,15,-1
 50 175 l 1,16,-1
 25 200 l 1,17,-1
 50 225 l 1,18,-1
 125 300 l 1,19,-1
 150 325 l 1,20,-1
 225 400 l 1,21,-1
 250 425 l 1,0,-1
EndSplineSet
EndChar

StartChar: at
Encoding: 64 64 65
Width: 500
Flags: W
LayerCount: 2
Fore
SplineSet
250 425 m 1,0,-1
 275 400 l 1,1,-1
 362.5 312.5 l 1,2,-1
 475 200 l 1,3,-1
 450 175 l 1,4,-1
 375 100 l 1,5,-1
 350 75 l 1,6,-1
 275 0 l 1,7,-1
 250 -25 l 1,8,-1
 225 0 l 1,9,-1
 150 75 l 1,10,-1
 125 100 l 1,11,-1
 50 175 l 1,12,-1
 25 200 l 1,13,-1
 50 225 l 1,14,-1
 125 300 l 1,15,-1
 137.5 312.5 l 1,16,-1
 150 325 l 1,17,-1
 225 400 l 1,18,-1
 250 425 l 1,0,-1
250 375 m 1,19,-1
 175 300 l 1,20,-1
 162.5 287.5 l 1,21,-1
 150 275 l 1,22,-1
 75 200 l 1,23,-1
 250 25 l 1,24,-1
 325 100 l 1,25,-1
 425 200 l 1,26,-1
 350 275 l 1,27,-1
 325 300 l 1,28,-1
 250 375 l 1,19,-1
250 325 m 1,29,-1
 375 200 l 1,30,-1
 250 75 l 1,31,-1
 125 200 l 1,32,-1
 250 325 l 1,29,-1
250 275 m 1,33,-1
 175 200 l 1,34,-1
 250 125 l 1,35,-1
 325 200 l 1,36,-1
 250 275 l 1,33,-1
150 325 m 1,37,-1
 162.5 312.5 l 1,38,-1
 175 300 l 1,39,-1
 350 125 l 1,40,-1
 362.5 112.5 l 1,41,-1
 375 100 l 1,42,-1
 350 75 l 1,43,-1
 337.5 87.5 l 1,44,-1
 325 100 l 1,45,-1
 150 275 l 1,46,-1
 137.5 287.5 l 1,47,-1
 125 300 l 1,48,-1
 150 325 l 1,37,-1
EndSplineSet
EndChar

StartChar: T
Encoding: 84 84 66
Width: 500
Flags: W
AnchorPoint: "vowel" 250 200 basechar 0
LayerCount: 2
Fore
SplineSet
150 325 m 1,0,-1
 175 300 l 1,1,-1
 150 275 l 1,2,-1
 75 200 l 1,3,-1
 250 25 l 1,4,-1
 325 100 l 1,5,-1
 350 125 l 1,6,-1
 425 200 l 1,7,-1
 350 275 l 1,8,-1
 325 300 l 1,9,-1
 350 325 l 1,10,-1
 375 300 l 1,11,-1
 475 200 l 1,12,-1
 450 175 l 1,13,-1
 375 100 l 1,14,-1
 350 75 l 1,15,-1
 250 -25 l 1,16,-1
 150 75 l 1,17,-1
 125 100 l 1,18,-1
 50 175 l 1,19,-1
 25 200 l 1,20,-1
 50 225 l 1,21,-1
 125 300 l 1,22,-1
 150 325 l 1,0,-1
EndSplineSet
EndChar

StartChar: greater
Encoding: 62 62 67
Width: 500
Flags: W
LayerCount: 2
Fore
SplineSet
250 325 m 1,0,-1
 375 200 l 1,1,-1
 250 75 l 1,2,-1
 200 125 l 1,3,-1
 187.5 137.5 l 1,4,-1
 175 150 l 1,5,-1
 200 175 l 1,6,-1
 212.5 162.5 l 1,7,-1
 225 150 l 1,8,-1
 250 125 l 1,9,-1
 325 200 l 1,10,-1
 250 275 l 1,11,-1
 225 250 l 1,12,-1
 212.5 237.5 l 1,13,-1
 200 225 l 1,14,-1
 175 250 l 1,15,-1
 187.5 262.5 l 1,16,-1
 200 275 l 1,17,-1
 250 325 l 1,0,-1
EndSplineSet
EndChar

StartChar: asterisk
Encoding: 42 42 68
Width: 500
Flags: W
LayerCount: 2
Fore
SplineSet
275 0 m 1,0,-1
 250 -25 l 1,1,-1
 225 0 l 1,2,-1
 225 400 l 1,3,-1
 250 425 l 1,4,-1
 275 400 l 1,5,-1
 275 0 l 1,0,-1
350 325 m 1,6,-1
 375 300 l 1,7,-1
 362.5 287.5 l 1,8,-1
 350 275 l 1,9,-1
 175 100 l 1,10,-1
 162.5 87.5 l 1,11,-1
 150 75 l 1,12,-1
 125 100 l 1,13,-1
 137.5 112.5 l 1,14,-1
 150 125 l 1,15,-1
 325 300 l 1,16,-1
 337.5 312.5 l 1,17,-1
 350 325 l 1,6,-1
150 325 m 1,18,-1
 162.5 312.5 l 1,19,-1
 175 300 l 1,20,-1
 350 125 l 1,21,-1
 362.5 112.5 l 1,22,-1
 375 100 l 1,23,-1
 350 75 l 1,24,-1
 337.5 87.5 l 1,25,-1
 325 100 l 1,26,-1
 150 275 l 1,27,-1
 137.5 287.5 l 1,28,-1
 125 300 l 1,29,-1
 150 325 l 1,18,-1
EndSplineSet
EndChar

StartChar: three
Encoding: 51 51 69
Width: 500
Flags: W
LayerCount: 2
Fore
SplineSet
250 425 m 1,0,-1
 275 400 l 1,1,-1
 250 375 l 1,2,-1
 175 300 l 1,3,-1
 150 275 l 1,4,-1
 75 200 l 1,5,-1
 250 25 l 1,6,-1
 325 100 l 1,7,-1
 350 125 l 1,8,-1
 425 200 l 1,9,-1
 450 225 l 1,10,-1
 475 200 l 1,11,-1
 450 175 l 1,12,-1
 375 100 l 1,13,-1
 350 75 l 1,14,-1
 250 -25 l 1,15,-1
 150 75 l 1,16,-1
 125 100 l 1,17,-1
 50 175 l 1,18,-1
 25 200 l 1,19,-1
 50 225 l 1,20,-1
 125 300 l 1,21,-1
 150 325 l 1,22,-1
 225 400 l 1,23,-1
 250 425 l 1,0,-1
250 325 m 1,24,-1
 375 200 l 1,25,-1
 250 75 l 1,26,-1
 125 200 l 1,27,-1
 250 325 l 1,24,-1
250 275 m 1,28,-1
 175 200 l 1,29,-1
 250 125 l 1,30,-1
 325 200 l 1,31,-1
 250 275 l 1,28,-1
EndSplineSet
EndChar

StartChar: quotesingle
Encoding: 39 39 70
Width: 500
Flags: W
LayerCount: 2
Fore
SplineSet
250 225 m 1,0,-1
 275 200 l 1,1,-1
 250 175 l 1,2,-1
 225 200 l 1,3,-1
 250 225 l 1,0,-1
EndSplineSet
EndChar

StartChar: ampersand
Encoding: 38 38 71
Width: 500
Flags: W
LayerCount: 2
Fore
SplineSet
250 425 m 1,0,-1
 275 400 l 1,1,-1
 475 200 l 1,2,-1
 450 175 l 1,3,-1
 375 100 l 1,4,-1
 350 75 l 1,5,-1
 250 -25 l 1,6,-1
 137.5 87.5 l 1,7,-1
 125 100 l 1,8,-1
 150 125 l 1,9,-1
 175 100 l 1,10,-1
 250 25 l 1,11,-1
 325 100 l 1,12,-1
 350 125 l 1,13,-1
 425 200 l 1,14,-1
 250 375 l 1,15,-1
 162.5 287.5 l 1,16,-1
 150 275 l 1,17,-1
 125 300 l 1,18,-1
 137.5 312.5 l 1,19,-1
 225 400 l 1,20,-1
 250 425 l 1,0,-1
250 325 m 1,21,-1
 375 200 l 1,22,-1
 250 75 l 1,23,-1
 200 125 l 1,24,-1
 187.5 137.5 l 1,25,-1
 175 150 l 1,26,-1
 200 175 l 1,27,-1
 212.5 162.5 l 1,28,-1
 225 150 l 1,29,-1
 250 125 l 1,30,-1
 325 200 l 1,31,-1
 250 275 l 1,32,-1
 225 250 l 1,33,-1
 212.5 237.5 l 1,34,-1
 200 225 l 1,35,-1
 175 250 l 1,36,-1
 187.5 262.5 l 1,37,-1
 200 275 l 1,38,-1
 250 325 l 1,21,-1
250 225 m 1,39,-1
 275 200 l 1,40,-1
 250 175 l 1,41,-1
 225 200 l 1,42,-1
 250 225 l 1,39,-1
EndSplineSet
EndChar

StartChar: two
Encoding: 50 50 72
Width: 500
Flags: W
LayerCount: 2
Fore
SplineSet
150 325 m 1,0,-1
 175 300 l 1,1,-1
 150 275 l 1,2,-1
 75 200 l 1,3,-1
 250 25 l 1,4,-1
 325 100 l 1,5,-1
 350 125 l 1,6,-1
 425 200 l 1,7,-1
 350 275 l 1,8,-1
 325 300 l 1,9,-1
 350 325 l 1,10,-1
 375 300 l 1,11,-1
 475 200 l 1,12,-1
 450 175 l 1,13,-1
 375 100 l 1,14,-1
 350 75 l 1,15,-1
 250 -25 l 1,16,-1
 150 75 l 1,17,-1
 125 100 l 1,18,-1
 50 175 l 1,19,-1
 25 200 l 1,20,-1
 50 225 l 1,21,-1
 125 300 l 1,22,-1
 150 325 l 1,0,-1
250 325 m 1,23,-1
 375 200 l 1,24,-1
 250 75 l 1,25,-1
 125 200 l 1,26,-1
 250 325 l 1,23,-1
250 275 m 1,27,-1
 175 200 l 1,28,-1
 250 125 l 1,29,-1
 325 200 l 1,30,-1
 250 275 l 1,27,-1
EndSplineSet
EndChar

StartChar: equal
Encoding: 61 61 73
Width: 500
Flags: W
LayerCount: 2
Fore
SplineSet
250 325 m 1,0,-1
 300 275 l 1,1,-1
 312.5 262.5 l 1,2,-1
 325 250 l 1,3,-1
 300 225 l 1,4,-1
 250 275 l 1,5,-1
 225 250 l 1,6,-1
 212.5 237.5 l 1,7,-1
 200 225 l 1,8,-1
 175 250 l 1,9,-1
 187.5 262.5 l 1,10,-1
 200 275 l 1,11,-1
 250 325 l 1,0,-1
200 175 m 1,12,-1
 212.5 162.5 l 1,13,-1
 250 125 l 1,14,-1
 300 175 l 1,15,-1
 325 150 l 1,16,-1
 312.5 137.5 l 1,17,-1
 300 125 l 1,18,-1
 250 75 l 1,19,-1
 200 125 l 1,20,-1
 187.5 137.5 l 1,21,-1
 175 150 l 1,22,-1
 200 175 l 1,12,-1
EndSplineSet
EndChar

StartChar: plus
Encoding: 43 43 74
Width: 500
Flags: W
LayerCount: 2
Fore
SplineSet
450 225 m 1,0,-1
 475 200 l 1,1,-1
 450 175 l 1,2,-1
 50 175 l 1,3,-1
 25 200 l 1,4,-1
 50 225 l 1,5,-1
 450 225 l 1,0,-1
275 0 m 1,6,-1
 250 -25 l 1,7,-1
 225 0 l 1,8,-1
 225 400 l 1,9,-1
 250 425 l 1,10,-1
 275 400 l 1,11,-1
 275 0 l 1,6,-1
EndSplineSet
EndChar

StartChar: question
Encoding: 63 63 75
Width: 500
Flags: W
LayerCount: 2
Fore
SplineSet
250 425 m 1,0,-1
 275 400 l 1,1,-1
 250 375 l 1,2,-1
 225 400 l 1,3,-1
 250 425 l 1,0,-1
250 25 m 1,4,-1
 275 0 l 1,5,-1
 250 -25 l 1,6,-1
 225 0 l 1,7,-1
 250 25 l 1,4,-1
250 225 m 1,8,-1
 275 200 l 1,9,-1
 250 175 l 1,10,-1
 225 200 l 1,11,-1
 250 225 l 1,8,-1
EndSplineSet
EndChar

StartChar: dollar
Encoding: 36 36 76
Width: 500
Flags: W
LayerCount: 2
Fore
SplineSet
150 325 m 1,0,-1
 162.5 312.5 l 1,1,-1
 175 300 l 1,2,-1
 350 125 l 1,3,-1
 362.5 112.5 l 1,4,-1
 375 100 l 1,5,-1
 350 75 l 1,6,-1
 337.5 87.5 l 1,7,-1
 325 100 l 1,8,-1
 150 275 l 1,9,-1
 137.5 287.5 l 1,10,-1
 125 300 l 1,11,-1
 150 325 l 1,0,-1
250 425 m 1,12,-1
 362.5 312.5 l 1,13,-1
 375 300 l 1,14,-1
 350 275 l 1,15,-1
 325 300 l 1,16,-1
 250 375 l 1,17,-1
 175 300 l 1,18,-1
 162.5 287.5 l 1,19,-1
 150 275 l 1,20,-1
 125 300 l 1,21,-1
 137.5 312.5 l 1,22,-1
 150 325 l 1,23,-1
 225 400 l 1,24,-1
 250 425 l 1,12,-1
150 125 m 1,25,-1
 250 25 l 1,26,-1
 325 100 l 1,27,-1
 350 125 l 1,28,-1
 375 100 l 1,29,-1
 350 75 l 1,30,-1
 250 -25 l 1,31,-1
 150 75 l 1,32,-1
 137.5 87.5 l 1,33,-1
 125 100 l 1,34,-1
 150 125 l 1,25,-1
225 600 m 1,35,-1
 250 625 l 1,36,-1
 275 600 l 1,37,-1
 275 -200 l 1,38,-1
 250 -225 l 1,39,-1
 225 -200 l 1,40,-1
 225 600 l 1,35,-1
EndSplineSet
EndChar

StartChar: zero
Encoding: 48 48 77
Width: 500
Flags: W
LayerCount: 2
Fore
SplineSet
250 325 m 1,0,-1
 375 200 l 1,1,-1
 250 75 l 1,2,-1
 125 200 l 1,3,-1
 250 325 l 1,0,-1
250 275 m 1,4,-1
 175 200 l 1,5,-1
 250 125 l 1,6,-1
 325 200 l 1,7,-1
 250 275 l 1,4,-1
EndSplineSet
EndChar

StartChar: one
Encoding: 49 49 78
Width: 500
Flags: W
LayerCount: 2
Fore
SplineSet
250 425 m 1,0,-1
 275 400 l 1,1,-1
 475 200 l 1,2,-1
 450 175 l 1,3,-1
 375 100 l 1,4,-1
 350 75 l 1,5,-1
 250 -25 l 1,6,-1
 150 75 l 1,7,-1
 125 100 l 1,8,-1
 50 175 l 1,9,-1
 25 200 l 1,10,-1
 50 225 l 1,11,-1
 75 200 l 1,12,-1
 250 25 l 1,13,-1
 325 100 l 1,14,-1
 350 125 l 1,15,-1
 425 200 l 1,16,-1
 350 275 l 1,17,-1
 325 300 l 1,18,-1
 250 375 l 1,19,-1
 225 400 l 1,20,-1
 250 425 l 1,0,-1
250 325 m 1,21,-1
 375 200 l 1,22,-1
 250 75 l 1,23,-1
 125 200 l 1,24,-1
 250 325 l 1,21,-1
250 275 m 1,25,-1
 175 200 l 1,26,-1
 250 125 l 1,27,-1
 325 200 l 1,28,-1
 250 275 l 1,25,-1
EndSplineSet
EndChar

StartChar: percent
Encoding: 37 37 79
Width: 500
Flags: W
LayerCount: 2
Fore
SplineSet
250 325 m 1,0,-1
 300 275 l 1,1,-1
 325 300 l 1,2,-1
 337.5 312.5 l 1,3,-1
 350 325 l 1,4,-1
 375 300 l 1,5,-1
 362.5 287.5 l 1,6,-1
 350 275 l 1,7,-1
 325 250 l 1,8,-1
 375 200 l 1,9,-1
 250 75 l 1,10,-1
 200 125 l 1,11,-1
 175 100 l 1,12,-1
 162.5 87.5 l 1,13,-1
 150 75 l 1,14,-1
 125 100 l 1,15,-1
 137.5 112.5 l 1,16,-1
 150 125 l 1,17,-1
 175 150 l 1,18,-1
 125 200 l 1,19,-1
 250 325 l 1,0,-1
250 275 m 1,20,-1
 175 200 l 1,21,-1
 200 175 l 1,22,-1
 275 250 l 1,23,-1
 250 275 l 1,20,-1
300 225 m 1,24,-1
 225 150 l 1,25,-1
 250 125 l 1,26,-1
 325 200 l 1,27,-1
 300 225 l 1,24,-1
EndSplineSet
EndChar

StartChar: comma
Encoding: 44 44 80
Width: 500
Flags: W
LayerCount: 2
Fore
SplineSet
50 225 m 1,0,-1
 75 200 l 1,1,-1
 50 175 l 1,2,-1
 25 200 l 1,3,-1
 50 225 l 1,0,-1
450 225 m 1,4,-1
 475 200 l 1,5,-1
 450 175 l 1,6,-1
 425 200 l 1,7,-1
 450 225 l 1,4,-1
250 225 m 1,8,-1
 275 200 l 1,9,-1
 250 175 l 1,10,-1
 225 200 l 1,11,-1
 250 225 l 1,8,-1
EndSplineSet
EndChar

StartChar: exclam
Encoding: 33 33 81
Width: 500
Flags: W
LayerCount: 2
Fore
SplineSet
250 425 m 1,0,-1
 275 400 l 1,1,-1
 250 375 l 1,2,-1
 225 400 l 1,3,-1
 250 425 l 1,0,-1
250 25 m 1,4,-1
 275 0 l 1,5,-1
 250 -25 l 1,6,-1
 225 0 l 1,7,-1
 250 25 l 1,4,-1
EndSplineSet
EndChar

StartChar: five
Encoding: 53 53 82
Width: 500
Flags: W
LayerCount: 2
Fore
SplineSet
250 425 m 1,0,-1
 275 400 l 1,1,-1
 362.5 312.5 l 1,2,-1
 475 200 l 1,3,-1
 450 175 l 1,4,-1
 375 100 l 1,5,-1
 350 75 l 1,6,-1
 275 0 l 1,7,-1
 250 -25 l 1,8,-1
 225 0 l 1,9,-1
 150 75 l 1,10,-1
 125 100 l 1,11,-1
 50 175 l 1,12,-1
 25 200 l 1,13,-1
 50 225 l 1,14,-1
 125 300 l 1,15,-1
 137.5 312.5 l 1,16,-1
 150 325 l 1,17,-1
 225 400 l 1,18,-1
 250 425 l 1,0,-1
250 375 m 1,19,-1
 175 300 l 1,20,-1
 162.5 287.5 l 1,21,-1
 150 275 l 1,22,-1
 75 200 l 1,23,-1
 250 25 l 1,24,-1
 325 100 l 1,25,-1
 425 200 l 1,26,-1
 350 275 l 1,27,-1
 325 300 l 1,28,-1
 250 375 l 1,19,-1
250 325 m 1,29,-1
 375 200 l 1,30,-1
 250 75 l 1,31,-1
 125 200 l 1,32,-1
 250 325 l 1,29,-1
250 275 m 1,33,-1
 175 200 l 1,34,-1
 250 125 l 1,35,-1
 325 200 l 1,36,-1
 250 275 l 1,33,-1
EndSplineSet
EndChar

StartChar: less
Encoding: 60 60 83
Width: 500
Flags: W
LayerCount: 2
Fore
SplineSet
250 325 m 1,0,-1
 300 275 l 1,1,-1
 312.5 262.5 l 1,2,-1
 325 250 l 1,3,-1
 300 225 l 1,4,-1
 287.5 237.5 l 1,5,-1
 275 250 l 1,6,-1
 250 275 l 1,7,-1
 175 200 l 1,8,-1
 250 125 l 1,9,-1
 275 150 l 1,10,-1
 287.5 162.5 l 1,11,-1
 300 175 l 1,12,-1
 325 150 l 1,13,-1
 312.5 137.5 l 1,14,-1
 300 125 l 1,15,-1
 250 75 l 1,16,-1
 125 200 l 1,17,-1
 250 325 l 1,0,-1
EndSplineSet
EndChar

StartChar: semicolon
Encoding: 59 59 84
Width: 500
Flags: W
LayerCount: 2
Fore
SplineSet
150 325 m 1,0,-1
 162.5 312.5 l 1,1,-1
 175 300 l 1,2,-1
 350 125 l 1,3,-1
 362.5 112.5 l 1,4,-1
 375 100 l 1,5,-1
 350 75 l 1,6,-1
 337.5 87.5 l 1,7,-1
 325 100 l 1,8,-1
 150 275 l 1,9,-1
 137.5 287.5 l 1,10,-1
 125 300 l 1,11,-1
 150 325 l 1,0,-1
50 225 m 1,12,-1
 75 200 l 1,13,-1
 50 175 l 1,14,-1
 25 200 l 1,15,-1
 50 225 l 1,12,-1
450 225 m 1,16,-1
 475 200 l 1,17,-1
 450 175 l 1,18,-1
 425 200 l 1,19,-1
 450 225 l 1,16,-1
250 225 m 1,20,-1
 275 200 l 1,21,-1
 250 175 l 1,22,-1
 225 200 l 1,23,-1
 250 225 l 1,20,-1
EndSplineSet
EndChar

StartChar: slash
Encoding: 47 47 85
Width: 500
Flags: W
LayerCount: 2
Fore
SplineSet
350 325 m 1,0,-1
 375 300 l 1,1,-1
 362.5 287.5 l 1,2,-1
 350 275 l 1,3,-1
 175 100 l 1,4,-1
 162.5 87.5 l 1,5,-1
 150 75 l 1,6,-1
 125 100 l 1,7,-1
 137.5 112.5 l 1,8,-1
 150 125 l 1,9,-1
 325 300 l 1,10,-1
 337.5 312.5 l 1,11,-1
 350 325 l 1,0,-1
EndSplineSet
EndChar

StartChar: four
Encoding: 52 52 86
Width: 500
Flags: W
LayerCount: 2
Fore
SplineSet
250 425 m 1,0,-1
 275 400 l 1,1,-1
 475 200 l 1,2,-1
 450 175 l 1,3,-1
 375 100 l 1,4,-1
 350 75 l 1,5,-1
 250 -25 l 1,6,-1
 137.5 87.5 l 1,7,-1
 125 100 l 1,8,-1
 150 125 l 1,9,-1
 175 100 l 1,10,-1
 250 25 l 1,11,-1
 325 100 l 1,12,-1
 350 125 l 1,13,-1
 425 200 l 1,14,-1
 250 375 l 1,15,-1
 162.5 287.5 l 1,16,-1
 150 275 l 1,17,-1
 125 300 l 1,18,-1
 137.5 312.5 l 1,19,-1
 225 400 l 1,20,-1
 250 425 l 1,0,-1
250 325 m 1,21,-1
 375 200 l 1,22,-1
 250 75 l 1,23,-1
 125 200 l 1,24,-1
 250 325 l 1,21,-1
250 275 m 1,25,-1
 175 200 l 1,26,-1
 250 125 l 1,27,-1
 325 200 l 1,28,-1
 250 275 l 1,25,-1
EndSplineSet
EndChar

StartChar: six
Encoding: 54 54 87
Width: 500
Flags: W
LayerCount: 2
Fore
SplineSet
250 425 m 1,0,-1
 362.5 312.5 l 1,1,-1
 375 300 l 1,2,-1
 350 275 l 1,3,-1
 325 300 l 1,4,-1
 250 375 l 1,5,-1
 175 300 l 1,6,-1
 150 275 l 1,7,-1
 75 200 l 1,8,-1
 250 25 l 1,9,-1
 325 100 l 1,10,-1
 350 125 l 1,11,-1
 375 100 l 1,12,-1
 350 75 l 1,13,-1
 250 -25 l 1,14,-1
 150 75 l 1,15,-1
 125 100 l 1,16,-1
 50 175 l 1,17,-1
 25 200 l 1,18,-1
 50 225 l 1,19,-1
 125 300 l 1,20,-1
 150 325 l 1,21,-1
 225 400 l 1,22,-1
 250 425 l 1,0,-1
250 325 m 1,23,-1
 375 200 l 1,24,-1
 250 75 l 1,25,-1
 125 200 l 1,26,-1
 250 325 l 1,23,-1
250 275 m 1,27,-1
 175 200 l 1,28,-1
 250 125 l 1,29,-1
 325 200 l 1,30,-1
 250 275 l 1,27,-1
EndSplineSet
EndChar

StartChar: quotedbl
Encoding: 34 34 88
Width: 500
Flags: W
LayerCount: 2
Fore
SplineSet
50 225 m 1,0,-1
 75 200 l 1,1,-1
 50 175 l 1,2,-1
 25 200 l 1,3,-1
 50 225 l 1,0,-1
450 225 m 1,4,-1
 475 200 l 1,5,-1
 450 175 l 1,6,-1
 425 200 l 1,7,-1
 450 225 l 1,4,-1
EndSplineSet
EndChar

StartChar: hyphen
Encoding: 45 45 89
Width: 500
Flags: W
LayerCount: 2
Fore
SplineSet
450 225 m 1,0,-1
 475 200 l 1,1,-1
 450 175 l 1,2,-1
 50 175 l 1,3,-1
 25 200 l 1,4,-1
 50 225 l 1,5,-1
 450 225 l 1,0,-1
EndSplineSet
EndChar

StartChar: period
Encoding: 46 46 90
Width: 500
Flags: W
LayerCount: 2
Fore
SplineSet
50 225 m 1,0,-1
 75 200 l 1,1,-1
 50 175 l 1,2,-1
 25 200 l 1,3,-1
 50 225 l 1,0,-1
250 425 m 1,4,-1
 275 400 l 1,5,-1
 250 375 l 1,6,-1
 225 400 l 1,7,-1
 250 425 l 1,4,-1
450 225 m 1,8,-1
 475 200 l 1,9,-1
 450 175 l 1,10,-1
 425 200 l 1,11,-1
 450 225 l 1,8,-1
250 25 m 1,12,-1
 275 0 l 1,13,-1
 250 -25 l 1,14,-1
 225 0 l 1,15,-1
 250 25 l 1,12,-1
250 225 m 1,16,-1
 275 200 l 1,17,-1
 250 175 l 1,18,-1
 225 200 l 1,19,-1
 250 225 l 1,16,-1
EndSplineSet
EndChar

StartChar: colon
Encoding: 58 58 91
Width: 500
Flags: W
LayerCount: 2
Fore
SplineSet
150 325 m 1,0,-1
 162.5 312.5 l 1,1,-1
 175 300 l 1,2,-1
 350 125 l 1,3,-1
 362.5 112.5 l 1,4,-1
 375 100 l 1,5,-1
 350 75 l 1,6,-1
 337.5 87.5 l 1,7,-1
 325 100 l 1,8,-1
 150 275 l 1,9,-1
 137.5 287.5 l 1,10,-1
 125 300 l 1,11,-1
 150 325 l 1,0,-1
50 225 m 1,12,-1
 75 200 l 1,13,-1
 50 175 l 1,14,-1
 25 200 l 1,15,-1
 50 225 l 1,12,-1
250 425 m 1,16,-1
 275 400 l 1,17,-1
 250 375 l 1,18,-1
 225 400 l 1,19,-1
 250 425 l 1,16,-1
450 225 m 1,20,-1
 475 200 l 1,21,-1
 450 175 l 1,22,-1
 425 200 l 1,23,-1
 450 225 l 1,20,-1
250 25 m 1,24,-1
 275 0 l 1,25,-1
 250 -25 l 1,26,-1
 225 0 l 1,27,-1
 250 25 l 1,24,-1
250 225 m 1,28,-1
 275 200 l 1,29,-1
 250 175 l 1,30,-1
 225 200 l 1,31,-1
 250 225 l 1,28,-1
EndSplineSet
EndChar

StartChar: numbersign
Encoding: 35 35 92
Width: 500
Flags: W
LayerCount: 2
Fore
SplineSet
250 425 m 1,0,-1
 362.5 312.5 l 1,1,-1
 375 300 l 1,2,-1
 350 275 l 1,3,-1
 325 300 l 1,4,-1
 250 375 l 1,5,-1
 175 300 l 1,6,-1
 150 275 l 1,7,-1
 75 200 l 1,8,-1
 250 25 l 1,9,-1
 325 100 l 1,10,-1
 350 125 l 1,11,-1
 375 100 l 1,12,-1
 350 75 l 1,13,-1
 250 -25 l 1,14,-1
 150 75 l 1,15,-1
 125 100 l 1,16,-1
 50 175 l 1,17,-1
 25 200 l 1,18,-1
 50 225 l 1,19,-1
 125 300 l 1,20,-1
 150 325 l 1,21,-1
 225 400 l 1,22,-1
 250 425 l 1,0,-1
150 325 m 1,23,-1
 162.5 312.5 l 1,24,-1
 175 300 l 1,25,-1
 350 125 l 1,26,-1
 362.5 112.5 l 1,27,-1
 375 100 l 1,28,-1
 350 75 l 1,29,-1
 337.5 87.5 l 1,30,-1
 325 100 l 1,31,-1
 150 275 l 1,32,-1
 137.5 287.5 l 1,33,-1
 125 300 l 1,34,-1
 150 325 l 1,23,-1
225 600 m 1,35,-1
 250 625 l 1,36,-1
 275 600 l 1,37,-1
 275 -200 l 1,38,-1
 250 -225 l 1,39,-1
 225 -200 l 1,40,-1
 225 600 l 1,35,-1
EndSplineSet
EndChar

StartChar: seven
Encoding: 55 55 93
Width: 500
Flags: W
LayerCount: 2
Fore
SplineSet
250 425 m 1,0,-1
 475 200 l 1,1,-1
 450 175 l 1,2,-1
 375 100 l 1,3,-1
 350 75 l 1,4,-1
 275 0 l 1,5,-1
 250 -25 l 1,6,-1
 225 0 l 1,7,-1
 250 25 l 1,8,-1
 325 100 l 1,9,-1
 350 125 l 1,10,-1
 425 200 l 1,11,-1
 250 375 l 1,12,-1
 175 300 l 1,13,-1
 150 275 l 1,14,-1
 75 200 l 1,15,-1
 50 175 l 1,16,-1
 25 200 l 1,17,-1
 50 225 l 1,18,-1
 125 300 l 1,19,-1
 150 325 l 1,20,-1
 225 400 l 1,21,-1
 250 425 l 1,0,-1
250 325 m 1,22,-1
 375 200 l 1,23,-1
 250 75 l 1,24,-1
 125 200 l 1,25,-1
 250 325 l 1,22,-1
250 275 m 1,26,-1
 175 200 l 1,27,-1
 250 125 l 1,28,-1
 325 200 l 1,29,-1
 250 275 l 1,26,-1
EndSplineSet
EndChar

StartChar: uni25CC
Encoding: 9676 9676 95
Width: 500
Flags: W
AnchorPoint: "vowel" 250 200 basechar 0
LayerCount: 2
Fore
SplineSet
250 425 m 1,0,-1
 275 400 l 1,1,-1
 250 375 l 1,2,-1
 225 400 l 1,3,-1
 250 425 l 1,0,-1
150 325 m 1,4,-1
 162.5 312.5 l 1,5,-1
 175 300 l 1,6,-1
 200 275 l 1,7,-1
 250 325 l 1,8,-1
 375 200 l 1,9,-1
 325 150 l 1,10,-1
 350 125 l 1,11,-1
 362.5 112.5 l 1,12,-1
 375 100 l 1,13,-1
 350 75 l 1,14,-1
 337.5 87.5 l 1,15,-1
 325 100 l 1,16,-1
 300 125 l 1,17,-1
 250 75 l 1,18,-1
 125 200 l 1,19,-1
 175 250 l 1,20,-1
 150 275 l 1,21,-1
 137.5 287.5 l 1,22,-1
 125 300 l 1,23,-1
 150 325 l 1,4,-1
250 275 m 1,24,-1
 225 250 l 1,25,-1
 300 175 l 1,26,-1
 325 200 l 1,27,-1
 250 275 l 1,24,-1
50 225 m 1,28,-1
 75 200 l 1,29,-1
 50 175 l 1,30,-1
 25 200 l 1,31,-1
 50 225 l 1,28,-1
200 225 m 1,32,-1
 175 200 l 1,33,-1
 250 125 l 1,34,-1
 275 150 l 1,35,-1
 200 225 l 1,32,-1
450 225 m 1,36,-1
 475 200 l 1,37,-1
 450 175 l 1,38,-1
 425 200 l 1,39,-1
 450 225 l 1,36,-1
250 25 m 1,40,-1
 275 0 l 1,41,-1
 250 -25 l 1,42,-1
 225 0 l 1,43,-1
 250 25 l 1,40,-1
EndSplineSet
EndChar
